<svg width="278" height="50" viewBox="0 0 278 50" fill="none" xmlns="http://www.w3.org/2000/svg">
<path d="M12.1763 2.56678C18.8252 2.72419 23.5559 1.2207 23.5559 9.87252C23.5559 16.0004 21.0362 17.8784 16.9611 17.8784H12.1763V2.56678ZM12.3876 37.1144C16.1429 37.1144 21.1337 37.5431 25.0461 36.2513C28.8014 35.0192 32.0907 32.4899 32.0907 27.7624C32.0907 21.6399 25.8698 18.8989 20.6135 18.5352V18.4266C25.225 17.7265 30.8606 15.3654 30.8606 9.88338C30.8444 2.13799 22.3963 1.2207 16.468 1.2207H0V2.56678H5.31052V35.7683H0V37.1144H12.3876ZM12.1763 19.2028H17.27C22.7431 19.2517 24.4013 22.4215 24.4013 27.4747C24.4013 31.2361 23.5993 35.7466 18.9336 35.7466H12.1763V19.2028Z" fill="#221F20"/>
<path d="M47.1012 29.3205C47.1493 30.2673 47.0225 31.215 46.7273 32.1157C46.0825 33.8363 44.6898 35.2855 42.8095 35.2855C40.2897 35.2855 39.3251 33.5161 39.3251 31.1496C39.3251 26.8074 43.774 26.3678 47.1012 26.3678V29.3205ZM47.1012 25.2388C42.273 24.9729 33.6895 26.3244 33.6895 32.7074C33.6895 36.1485 36.0521 37.918 39.2709 37.918C40.7747 37.9 42.256 37.5503 43.6094 36.8936C44.9628 36.2369 46.155 35.2894 47.1012 34.1186C47.4264 36.4851 48.922 37.918 51.2846 37.918C53.5389 37.918 54.9857 36.789 56.3838 35.0738L55.7389 34.3194C55.3108 34.7482 54.5034 35.5569 53.8586 35.5569C53.2137 35.5569 52.5743 35.2313 52.5743 34.5365V20.2399C52.5743 18.579 52.092 17.716 50.591 16.9833C48.4464 15.9709 46.0953 15.4746 43.7253 15.5341C40.4739 15.5341 35.1959 16.9833 35.1959 21.0649C35.1959 22.7855 36.4802 23.5888 37.9812 23.5888C39.2167 23.5888 40.5552 22.6227 40.5552 21.2277C40.541 20.3168 40.2827 19.4264 39.8074 18.6496C39 17.6292 41.5252 16.6033 43.5627 16.6033C44.4731 16.6033 47.1012 17.1461 47.1012 18.541V25.2388Z" fill="#221F20"/>
<path d="M66.6363 21.6023C68.354 18.6497 70.229 15.5342 74.1468 15.5342C76.2385 15.5342 78.4386 16.6197 78.4386 19.0242C78.4386 21.1192 76.9918 22.0311 75.0572 22.0311C74.3968 22.0187 73.7654 21.7577 73.2884 21.3001C72.8114 20.8425 72.524 20.2218 72.4832 19.5615C72.4958 19.2911 72.5321 19.0223 72.5916 18.7582C72.7542 17.8952 72.8084 17.575 72.2177 17.575C71.199 17.575 70.6625 18.1177 69.9635 18.8071C67.926 20.8479 66.6363 23.7517 66.6363 30.7913V35.7848H71.4645V37.1309H57.6788V35.7685H60.8706V17.1788H57.332V15.8381C60.1228 15.9467 63.3958 15.7296 66.6634 15.621L66.6363 21.6023Z" fill="#221F20"/>
<path d="M76.8833 37.1152V35.7692H80.9204V2.56767H77.0621V1.22159C80.2927 1.31077 83.5234 1.04687 86.6969 0.43457V35.7692H90.6148V37.1152H76.8833Z" fill="#221F20"/>
<path d="M96.0934 23.898C96.0934 20.5111 95.6111 16.5868 100.065 16.5868C104.839 16.5868 103.929 20.2994 103.929 23.898H96.0934ZM108.649 25.2387C109.505 25.2387 109.987 25.4015 109.987 24.2726C109.987 18.9534 105.376 15.5176 100.385 15.5176C94.5381 15.5176 89.7153 20.8856 89.7153 26.7965C89.7153 32.2785 93.9475 37.918 99.7945 37.918C105.002 37.918 108.703 35.6112 110.09 30.3951H108.746C107.663 34.048 104.726 36.8433 100.862 36.8433C96.3047 36.8433 96.088 33.2989 96.088 29.5375V25.2387H108.649Z" fill="#221F20"/>
<path d="M111.158 17.1795H108.557V15.8389H120.841V17.1795H117.406L123.366 30.2384L128.46 17.1795H124.602V15.8389H133.023V17.1795H130.07L120.597 41.4138C119.47 44.2579 117.346 49.6855 113.732 49.6855C112.231 49.6855 110.778 48.448 110.778 46.9717C110.762 46.622 110.817 46.2727 110.939 45.9447C111.062 45.6168 111.249 45.317 111.49 45.0634C111.731 44.8099 112.021 44.6078 112.342 44.4694C112.663 44.3309 113.008 44.259 113.358 44.2579C114.696 44.2579 115.179 44.5836 115.986 45.5497C116.36 46.0328 116.528 47.0532 118.24 43.1833C119.164 41.2355 119.951 39.2261 120.597 37.1694L111.158 17.1795Z" fill="#221F20"/>
<path d="M142.355 37.4349H141.439V26.7427H142.994C144.121 31.85 147.183 36.5774 152.867 36.5774C157.105 36.5774 160.86 33.462 160.86 29.0549C160.86 24.0561 156.406 23.0846 152.385 21.6952C151.301 21.3152 150.218 20.9407 149.166 20.6097C144.176 19.1062 141.71 15.345 141.71 10.2377C141.71 4.59851 145.893 0.408476 151.464 0.408476C154.32 0.315531 157.111 1.28187 159.3 3.12223L161.337 0.951227H162.302V11.1115H160.578C159.988 6.00423 156.666 1.75992 151.301 1.75992C147.866 1.75992 144.647 4.28914 144.647 7.88758C144.647 12.0233 147.492 12.4521 150.819 13.3694C152.158 13.7439 153.23 14.1184 154.141 14.3897C155.355 14.7143 156.543 15.1298 157.696 15.6326C162.204 17.7711 163.83 21.3152 163.83 26.1511C163.83 32.9192 159.435 37.918 152.515 37.918C149.99 37.918 146.771 36.8976 144.896 35.2042L142.355 37.4349Z" fill="#221F20"/>
<path d="M173.285 20.6741H173.394C175.112 17.3414 177.523 15.5176 181.387 15.5176C188.523 15.5176 187.933 20.5113 187.933 25.8306V35.7691H191.309V37.1152H178.845V35.7691H182.254V26.0966C182.254 21.1029 182.796 17.4499 179.192 17.4499C176.884 17.4499 174.797 19.9196 173.99 21.9062C173.291 23.6812 173.291 26.1509 173.291 28.6803V35.7691H176.672V37.1152H163.954V35.7691H167.623V17.1785H163.976V15.8378C166.685 15.9464 169.985 15.7293 173.307 15.6207L173.285 20.6741Z" fill="#221F20"/>
<path d="M190.967 17.1795H188.339V15.8389H200.618V17.1795H197.188L203.149 30.2384L208.264 17.1795H204.4V15.8389H212.821V17.1795H209.874L200.407 41.4138C199.28 44.2579 197.155 49.6855 193.541 49.6855C192.04 49.6855 190.588 48.448 190.588 46.9717C190.571 46.6223 190.625 46.2731 190.747 45.9451C190.868 45.6172 191.055 45.3174 191.296 45.0637C191.536 44.8101 191.825 44.6079 192.146 44.4694C192.467 44.3309 192.812 44.259 193.162 44.2579C194.506 44.2579 194.988 44.5836 195.79 45.5497C196.169 46.0328 196.332 47.0532 198.044 43.1833C198.971 41.2366 199.761 39.2271 200.407 37.1694L190.967 17.1795Z" fill="#221F20"/>
<path d="M217.156 22.4437C217.156 19.3825 217.585 16.5873 221.123 16.5873C225.258 16.5873 227.458 21.0488 227.458 24.4357V30.1293C227.458 33.3533 224.288 36.8433 221.02 36.8433C218.067 36.8433 217.156 34.5854 217.156 32.0073V22.4437ZM227.452 37.5435C230.883 36.9519 233.993 37.1147 237.109 37.1147V35.7686H233.245V0.43457C230.065 1.05372 226.827 1.32308 223.589 1.23786V2.58392H227.452V20.0827H227.344C226.699 17.5588 224.342 15.518 220.841 15.518C215.265 15.518 210.6 21.5319 210.6 26.851C210.6 29.6462 211.683 33.2448 213.813 35.1282C215.851 36.8976 217.303 37.918 220.142 37.918C223.524 37.918 226.043 36.2897 227.333 33.4619H227.442L227.452 37.5435Z" fill="#221F20"/>
<path d="M242.761 23.898C242.761 20.5111 242.274 16.5868 246.728 16.5868C251.502 16.5868 250.592 20.2994 250.592 23.898H242.761ZM255.312 25.2387C256.168 25.2387 256.65 25.4015 256.65 24.2726C256.65 18.9534 252.039 15.5176 247.048 15.5176C241.206 15.5176 236.378 20.8856 236.378 26.7965C236.378 32.2785 240.61 37.918 246.462 37.918C251.665 37.918 255.366 35.6112 256.758 30.3951H255.409C254.325 34.048 251.383 36.8433 247.519 36.8433C242.962 36.8433 242.751 33.2989 242.751 29.5375V25.2387H255.312Z" fill="#221F20"/>
<path d="M266.198 21.6023C267.915 18.6497 269.79 15.5342 273.708 15.5342C275.8 15.5342 278 16.6197 278 19.0242C278 21.1192 276.553 22.0311 274.619 22.0311C273.958 22.0187 273.327 21.7577 272.85 21.3001C272.373 20.8425 272.085 20.2218 272.045 19.5615C272.057 19.2911 272.093 19.0223 272.153 18.7582C272.315 17.8952 272.364 17.575 271.779 17.575C270.76 17.575 270.224 18.1177 269.525 18.8071C267.487 20.8479 266.198 23.7517 266.198 30.7913V35.7848H271.026V37.1309H257.24V35.7685H260.405V17.1788H256.866V15.8381C259.657 15.9467 262.925 15.7296 266.198 15.621V21.6023Z" fill="#221F20"/>
</svg>
