<svg width="14" height="16" viewBox="0 0 14 16" fill="none" xmlns="http://www.w3.org/2000/svg">
<path d="M7.00002 0C8.81866 0 10.5628 0.722452 11.8488 2.00843C13.1348 3.2944 13.8572 5.03855 13.8572 6.8572C13.8572 10.1338 11.6458 13.1498 7.30631 15.911C7.21473 15.9691 7.10849 16 7.00002 16C6.89154 16 6.78531 15.9691 6.69373 15.911C2.35427 13.1498 0.142822 10.1338 0.142822 6.8572C0.142822 5.03855 0.865275 3.2944 2.15125 2.00843C3.43722 0.722452 5.18138 0 7.00002 0ZM7.00002 4.57146C6.3938 4.57146 5.81242 4.81228 5.38376 5.24094C4.9551 5.6696 4.71429 6.25098 4.71429 6.8572C4.71429 7.46341 4.9551 8.04479 5.38376 8.47345C5.81242 8.90211 6.3938 9.14293 7.00002 9.14293C7.60623 9.14293 8.18762 8.90211 8.61627 8.47345C9.04493 8.04479 9.28575 7.46341 9.28575 6.8572C9.28575 6.25098 9.04493 5.6696 8.61627 5.24094C8.18762 4.81228 7.60623 4.57146 7.00002 4.57146Z" fill="#791F1F"/>
</svg>
