<svg width="26" height="31" viewBox="0 0 26 31" fill="none" xmlns="http://www.w3.org/2000/svg">
<path d="M23.4903 10.9487C23.0517 10.6736 22.475 10.8082 22.2017 11.2494C21.9285 11.6907 22.0622 12.2711 22.5005 12.546C23.5205 13.1862 24.1294 14.2905 24.1294 15.5002C24.1294 16.7099 23.5205 17.8141 22.5005 18.4543L7.16012 28.08C6.0779 28.759 4.76608 28.7924 3.65114 28.1699C2.53603 27.5471 1.8703 26.4091 1.8703 25.1258V5.87433C1.8703 4.59106 2.53603 3.45304 3.65114 2.83031C4.76608 2.20774 6.0779 2.24115 7.16012 2.92019L16.0903 8.52368C16.5288 8.7985 17.1055 8.66407 17.3789 8.22298C17.6521 7.78189 17.5184 7.20136 17.0801 6.92638L8.1499 1.32305C6.4827 0.276955 4.46182 0.225034 2.7435 1.18454C1.02563 2.1439 0 3.89711 0 5.87433V25.1257C0 27.1029 1.02563 28.8561 2.74365 29.8155C3.56198 30.2724 4.44873 30.5 5.33361 30.5C6.30641 30.5 7.27686 30.2249 8.1499 29.677L23.4903 20.0513C25.0618 19.0651 26 17.3638 26 15.5C26 13.6362 25.0618 11.9349 23.4903 10.9487Z" fill="white"/>
</svg>
