<svg width="120" height="108" viewBox="0 0 120 108" fill="none" xmlns="http://www.w3.org/2000/svg">
<path fill-rule="evenodd" clip-rule="evenodd" d="M0 107.16V56.1602C0 37.9892 4.67139 24.8609 12.4286 15.8215C20.1852 6.78281 30.9287 1.94702 42.8527 0.17112L44 0.000244141V20.8427L43.3644 21.0915C37.795 23.2708 33.2375 26.7583 30.054 32.2844C26.9588 37.6573 25.1187 45.0335 25.0055 55.1602H44.5V107.16H0ZM24.0055 55.1602C24.2355 34.3489 31.6798 24.5899 43 20.1602V1.16022C42.6656 1.21001 42.3323 1.26225 42 1.31693C18.9773 5.10542 1 20.6724 1 56.1602V106.16H43.5V56.1602H24C24 55.8241 24.0018 55.4907 24.0055 55.1602ZM75.5 107.16V56.1602C75.5 37.9892 80.1714 24.8609 87.9286 15.8215C95.6852 6.78281 106.429 1.94702 118.353 0.17112L119.5 0.000244141V20.8427L118.864 21.0915C113.295 23.2708 108.738 26.7583 105.554 32.2844C102.459 37.6573 100.619 45.0335 100.506 55.1602H120V107.16H75.5ZM99.5055 55.1602C99.7355 34.3489 107.18 24.5899 118.5 20.1602V1.16022C118.166 1.21001 117.832 1.26225 117.5 1.31693C94.4773 5.10542 76.5 20.6724 76.5 56.1602V106.16H119V56.1602H99.5C99.5 55.8241 99.5018 55.4907 99.5055 55.1602Z" fill="white"/>
</svg>
