<svg width="16" height="12" viewBox="0 0 16 12" fill="none" xmlns="http://www.w3.org/2000/svg">
<path d="M14.1667 0H1.83333C0.822 0 0 0.822 0 1.83333V10.1667C0 11.178 0.822 12 1.83333 12H14.1667C15.178 12 16 11.178 16 10.1667V1.83333C16 0.822 15.178 0 14.1667 0ZM5 2.66667C5.91867 2.66667 6.66667 3.41467 6.66667 4.33333C6.66667 5.252 5.91867 6 5 6C4.08133 6 3.33333 5.252 3.33333 4.33333C3.33333 3.41467 4.08133 2.66667 5 2.66667ZM8 8.83333C8 9.10933 7.776 9.33333 7.5 9.33333H2.5C2.224 9.33333 2 9.10933 2 8.83333V8.5C2 7.48867 2.822 6.66667 3.83333 6.66667H6.16667C7.178 6.66667 8 7.48867 8 8.5V8.83333ZM13.5 9.33333H9.83333C9.55733 9.33333 9.33333 9.10933 9.33333 8.83333C9.33333 8.55733 9.55733 8.33333 9.83333 8.33333H13.5C13.776 8.33333 14 8.55733 14 8.83333C14 9.10933 13.776 9.33333 13.5 9.33333ZM13.5 6.66667H9.83333C9.55733 6.66667 9.33333 6.44267 9.33333 6.16667C9.33333 5.89067 9.55733 5.66667 9.83333 5.66667H13.5C13.776 5.66667 14 5.89067 14 6.16667C14 6.44267 13.776 6.66667 13.5 6.66667ZM13.5 4H9.83333C9.55733 4 9.33333 3.776 9.33333 3.5C9.33333 3.224 9.55733 3 9.83333 3H13.5C13.776 3 14 3.224 14 3.5C14 3.776 13.776 4 13.5 4Z" fill="#791F1F"/>
</svg>
