<svg width="25" height="23" viewBox="0 0 25 23" fill="none" xmlns="http://www.w3.org/2000/svg">
<path d="M12.0429 0C7.85952 0 5.04834 2.89774 5.04834 7.21099C5.04834 10.7655 10.106 17.484 10.681 18.2357L12.0408 20.0326L13.4115 18.2343C14.7317 16.4792 19.0376 10.4997 19.0376 7.21104C19.0375 2.89774 16.2263 0 12.0429 0ZM12.2145 17.327L12.0451 17.5492L11.8764 17.3263C10.0341 14.917 6.55031 9.70164 6.55031 7.21099C6.55031 3.68946 8.65524 1.50207 12.0429 1.50207C15.4305 1.50207 17.5355 3.68946 17.5355 7.21099C17.5355 9.45632 14.6671 14.0662 12.2145 17.327Z" fill="#8D1414"/>
<path d="M12.0377 4.4812C10.5086 4.4812 9.26465 5.72507 9.26465 7.25428C9.26465 8.7835 10.5085 10.0273 12.0377 10.0273C13.5669 10.0273 14.8108 8.78345 14.8108 7.25428C14.8108 5.72512 13.5669 4.4812 12.0377 4.4812ZM12.0377 8.52525C11.3366 8.52525 10.7667 7.95501 10.7667 7.25424C10.7667 6.55346 11.3366 5.98322 12.0377 5.98322C12.7389 5.98322 13.3087 6.55346 13.3087 7.25424C13.3087 7.95506 12.7388 8.52525 12.0377 8.52525Z" fill="#8D1414"/>
<path d="M18.7975 16.0288L21.6879 21.4979H12.0428H11.104H2.49361L5.38404 16.0288L4.05653 15.3262L0 22.9999H11.104H12.0428H24.1815L20.125 15.3262L18.7975 16.0288Z" fill="#8D1414"/>
</svg>
