<svg width="14" height="14" viewBox="0 0 14 14" fill="none" xmlns="http://www.w3.org/2000/svg">
<path d="M1.75 3.49976C2.7165 3.49976 3.5 2.71625 3.5 1.74976C3.5 0.783257 2.7165 -0.000244141 1.75 -0.000244141C0.783501 -0.000244141 0 0.783257 0 1.74976C0 2.71625 0.783501 3.49976 1.75 3.49976Z" fill="#791F1F"/>
<path d="M4.80246 4.32216V13.9989H7.74945V9.21353C7.74945 7.95083 7.98246 6.72798 9.51812 6.72798C11.0327 6.72798 11.0514 8.17164 11.0514 9.29324V13.9997H14V8.69298C14 6.08627 13.4495 4.08301 10.4611 4.08301C9.02631 4.08301 8.06456 4.88575 7.67126 5.64544H7.63139V4.32216H4.80246ZM0 4.32216H2.95169V13.9989H0V4.32216Z" fill="#791F1F"/>
</svg>
