<svg width="61" height="60" viewBox="0 0 61 60" fill="none" xmlns="http://www.w3.org/2000/svg">
<path d="M39.875 1.875H21.125C20.3793 1.87584 19.6645 2.17242 19.1372 2.69969C18.6099 3.22695 18.3133 3.94184 18.3125 4.6875V44.0625C18.3133 44.8082 18.6099 45.523 19.1372 46.0503C19.6645 46.5776 20.3793 46.8742 21.125 46.875V48.75C20.8764 48.75 20.6379 48.8488 20.4621 49.0246C20.2863 49.2004 20.1875 49.4389 20.1875 49.6875V57.1875C20.1875 57.4361 20.2863 57.6746 20.4621 57.8504C20.6379 58.0262 20.8764 58.125 21.125 58.125H42.6875C42.9361 58.125 43.1746 58.0262 43.3504 57.8504C43.5262 57.6746 43.625 57.4361 43.625 57.1875V49.6875C43.625 49.4389 43.5262 49.2004 43.3504 49.0246C43.1746 48.8488 42.9361 48.75 42.6875 48.75V46.0152L44.5498 34.8416C44.5714 34.7125 44.5656 34.5802 44.5329 34.4535C44.5002 34.3267 44.4413 34.2082 44.36 34.1055L42.6875 31.9932V4.6875C42.6866 3.94185 42.39 3.22698 41.8628 2.69972C41.3355 2.17246 40.6207 1.87587 39.875 1.875ZM24.875 3.75H36.125V4.6875C36.1247 4.93605 36.0259 5.17435 35.8501 5.3501C35.6744 5.52586 35.4361 5.62472 35.1875 5.625H25.8125C25.5639 5.62472 25.3257 5.52586 25.1499 5.3501C24.9741 5.17435 24.8753 4.93605 24.875 4.6875V3.75ZM20.1875 4.6875C20.1878 4.43895 20.2866 4.20065 20.4624 4.0249C20.6382 3.84914 20.8764 3.75028 21.125 3.75H23V4.6875C23.0009 5.43315 23.2975 6.14802 23.8247 6.67528C24.352 7.20254 25.0668 7.49913 25.8125 7.5H35.1875C35.9332 7.49913 36.648 7.20254 37.1753 6.67528C37.7025 6.14802 37.9991 5.43315 38 4.6875V3.75H39.875C40.1236 3.75028 40.3619 3.84914 40.5376 4.0249C40.7134 4.20065 40.8122 4.43895 40.8125 4.6875V29.625L37.4795 25.4156C37.3763 25.2858 37.2624 25.165 37.1389 25.0543C37.9431 23.5251 38.1946 21.7651 37.8508 20.0719C37.507 18.3786 36.5889 16.8561 35.2519 15.7616C33.915 14.6672 32.2411 14.0681 30.5133 14.0656C28.7855 14.063 27.1098 14.6573 25.7696 15.7477C24.4294 16.8382 23.507 18.3581 23.1582 20.0503C22.8094 21.7426 23.0557 23.5033 23.8554 25.0349C24.6552 26.5664 25.9593 27.7748 27.5473 28.4557C29.1353 29.1366 30.9097 29.2482 32.5705 28.7716L34.8601 35.7197C33.5203 35.9253 32.2494 36.4498 31.1547 37.2491C30.0599 38.0484 29.1731 39.099 28.5691 40.3125H20.1875V4.6875ZM36.125 21.5625C36.1264 22.5252 35.8795 23.472 35.4082 24.3115C34.6454 24.2474 33.8877 24.4834 33.2962 24.9692C32.7047 25.455 32.3259 26.1524 32.2405 26.913C31.1107 27.2808 29.8935 27.2814 28.7633 26.9148C27.6331 26.5482 26.648 25.8332 25.9492 24.8723C25.2505 23.9113 24.8738 22.7539 24.8734 21.5657C24.8729 20.3776 25.2486 19.2198 25.9466 18.2583C26.6447 17.2968 27.6292 16.5811 28.7591 16.2136C29.8889 15.846 31.1062 15.8457 32.2362 16.2126C33.3663 16.5794 34.3513 17.2946 35.0498 18.2557C35.7484 19.2168 36.1248 20.3744 36.125 21.5625ZM20.1875 44.0625V42.1875H27.8984C27.7582 42.8026 27.6874 43.4316 27.6875 44.0625V45H21.125C20.8764 44.9997 20.6382 44.9009 20.4624 44.7251C20.2866 44.5494 20.1878 44.3111 20.1875 44.0625ZM41.75 56.25H22.0625V50.625H41.75V56.25ZM40.8252 45.7835C40.8167 45.8344 40.8125 45.8859 40.8125 45.9375V48.75H23V46.875H28.625C28.8736 46.875 29.1121 46.7762 29.2879 46.6004C29.4637 46.4246 29.5625 46.1861 29.5625 45.9375V44.0625C29.5645 42.3226 30.2565 40.6546 31.4868 39.4243C32.7171 38.194 34.3851 37.502 36.125 37.5C36.2732 37.5 36.4194 37.4649 36.5514 37.3975C36.6834 37.33 36.7976 37.2323 36.8845 37.1122C36.9714 36.9921 37.0286 36.8531 37.0514 36.7066C37.0742 36.5602 37.062 36.4104 37.0156 36.2695L34.152 27.5803C34.0732 27.3413 34.0811 27.0821 34.1742 26.8483C34.2674 26.6145 34.4399 26.4209 34.6615 26.3016C34.8831 26.1822 35.1397 26.1447 35.3862 26.1956C35.6327 26.2465 35.8534 26.3826 36.0096 26.58L42.6321 34.944L40.8252 45.7835Z" fill="white"/>
<path d="M13.625 15H9.875C9.62636 15 9.3879 15.0988 9.21209 15.2746C9.03627 15.4504 8.9375 15.6889 8.9375 15.9375V28.125H8C7.83579 28.125 7.67446 28.1681 7.53216 28.2501C7.38985 28.332 7.27157 28.4499 7.18915 28.5919C7.10673 28.734 7.06306 28.8951 7.06251 29.0594C7.06195 29.2236 7.10455 29.385 7.18601 29.5276L10.936 36.0901C11.018 36.2336 11.1365 36.3529 11.2794 36.4359C11.4224 36.5188 11.5847 36.5625 11.75 36.5625C11.9153 36.5625 12.0776 36.5188 12.2206 36.4359C12.3635 36.3529 12.482 36.2336 12.564 36.0901L16.314 29.5276C16.3955 29.385 16.438 29.2236 16.4375 29.0594C16.4369 28.8951 16.3933 28.734 16.3109 28.5919C16.2284 28.4499 16.1101 28.332 15.9678 28.2501C15.8255 28.1681 15.6642 28.125 15.5 28.125H14.5625V15.9375C14.5625 15.6889 14.4637 15.4504 14.2879 15.2746C14.1121 15.0988 13.8736 15 13.625 15ZM11.75 33.7354L9.61555 30H9.875C10.1236 30 10.3621 29.9012 10.5379 29.7254C10.7137 29.5496 10.8125 29.3111 10.8125 29.0625V16.875H12.6875V29.0625C12.6875 29.3111 12.7863 29.5496 12.9621 29.7254C13.1379 29.9012 13.3764 30 13.625 30H13.8845L11.75 33.7354Z" fill="white"/>
<path d="M32.3751 19.6875C32.3751 19.4389 32.2764 19.2004 32.1005 19.0246C31.9247 18.8488 31.6863 18.75 31.4376 18.75C31.4376 18.5014 31.3389 18.2629 31.163 18.0871C30.9872 17.9113 30.7488 17.8125 30.5001 17.8125C30.2515 17.8125 30.013 17.9113 29.8372 18.0871C29.6614 18.2629 29.5626 18.5014 29.5626 18.75V19.0037C29.2052 19.2098 28.9257 19.5282 28.7677 19.9094C28.6098 20.2906 28.5821 20.7133 28.6889 21.1118C28.7958 21.5104 29.0313 21.8625 29.3588 22.1135C29.6863 22.3645 30.0875 22.5004 30.5001 22.5H29.5626C29.314 22.5 29.0755 22.5988 28.8997 22.7746C28.7239 22.9504 28.6251 23.1889 28.6251 23.4375C28.6251 23.6861 28.7239 23.9246 28.8997 24.1004C29.0755 24.2762 29.314 24.375 29.5626 24.375C29.5626 24.6236 29.6614 24.8621 29.8372 25.0379C30.013 25.2137 30.2515 25.3125 30.5001 25.3125C30.7488 25.3125 30.9872 25.2137 31.163 25.0379C31.3389 24.8621 31.4376 24.6236 31.4376 24.375V24.1213C31.7951 23.9152 32.0745 23.5968 32.2325 23.2156C32.3905 22.8344 32.4182 22.4117 32.3114 22.0132C32.2045 21.6146 31.969 21.2625 31.6415 21.0115C31.314 20.7605 30.9128 20.6246 30.5001 20.625H31.4376C31.6863 20.625 31.9247 20.5262 32.1005 20.3504C32.2764 20.1746 32.3751 19.9361 32.3751 19.6875Z" fill="white"/>
<path d="M47.375 36.5625H51.125C51.3736 36.5625 51.6121 36.4637 51.7879 36.2879C51.9637 36.1121 52.0625 35.8736 52.0625 35.625V23.4375H53C53.1642 23.4375 53.3255 23.3944 53.4678 23.3124C53.6101 23.2305 53.7284 23.1126 53.8108 22.9706C53.8933 22.8285 53.9369 22.6674 53.9375 22.5032C53.938 22.3389 53.8955 22.1775 53.814 22.0349L50.064 15.4724C49.982 15.3289 49.8635 15.2096 49.7206 15.1267C49.5776 15.0437 49.4153 15 49.25 15C49.0847 15 48.9224 15.0437 48.7794 15.1267C48.6365 15.2096 48.518 15.3289 48.436 15.4724L44.686 22.0349C44.6045 22.1775 44.562 22.3389 44.5625 22.5032C44.5631 22.6674 44.6067 22.8285 44.6891 22.9706C44.7716 23.1126 44.8899 23.2305 45.0322 23.3124C45.1745 23.3944 45.3358 23.4375 45.5 23.4375H46.4375V35.625C46.4375 35.8736 46.5363 36.1121 46.7121 36.2879C46.8879 36.4637 47.1264 36.5625 47.375 36.5625ZM49.25 17.8272L51.3846 21.5625H51.125C50.8764 21.5625 50.6379 21.6613 50.4621 21.8371C50.2863 22.0129 50.1875 22.2514 50.1875 22.5V34.6875H48.3125V22.5C48.3125 22.2514 48.2137 22.0129 48.0379 21.8371C47.8621 21.6613 47.6236 21.5625 47.375 21.5625H47.1154L49.25 17.8272Z" fill="white"/>
</svg>
