<svg width="61" height="61" viewBox="0 0 61 61" fill="none" xmlns="http://www.w3.org/2000/svg">
<g clip-path="url(#clip0)">
<path d="M56.9651 11.8887H27.5484C26.9537 9.5092 24.7983 7.74095 22.2371 7.74095H21.8559L18.8464 0.627657C18.6953 0.270235 18.3449 0.0380859 17.9569 0.0380859C17.5689 0.0380859 17.2185 0.270352 17.0673 0.627657L14.0578 7.74095H11.7351C11.2016 7.74095 10.7692 8.17349 10.7692 8.70693V11.8886H4.03238C3.49883 11.8886 3.06641 12.3211 3.06641 12.8546V20.5577C3.06641 21.0911 3.49883 21.5236 4.03238 21.5236H10.7694V23.7179C10.7694 24.2513 11.2018 24.6838 11.7354 24.6838H13.1395V52.971H6.59997C6.06641 52.971 5.63399 53.4035 5.63399 53.9369V59.0722C5.63399 59.6057 6.06641 60.0382 6.59997 60.0382H20.0667C20.6003 60.0382 21.0327 59.6057 21.0327 59.0722C21.0327 58.5388 20.6003 58.1063 20.0667 58.1063H7.56595V54.9029H28.3478V58.1063H23.1578C22.6242 58.1063 22.1918 58.5388 22.1918 59.0722C22.1918 59.6057 22.6242 60.0382 23.1578 60.0382H29.3138C29.8473 60.0382 30.2797 59.6057 30.2797 59.0722V53.9369C30.2797 53.4035 29.8473 52.971 29.3138 52.971H22.7743V24.6837H26.7462C27.2797 24.6837 27.7122 24.2512 27.7122 23.7177V21.5235H51.259V30.2874H50.6795C50.146 30.2874 49.7136 30.7199 49.7136 31.2534C49.7136 31.7868 50.146 32.2194 50.6795 32.2194H51.259V34.6796C51.259 35.213 51.6915 35.6456 52.225 35.6456C53.1898 35.6456 53.9749 36.4305 53.9749 37.3953C53.9749 38.3601 53.1898 39.1452 52.225 39.1452C51.2602 39.1452 50.4752 38.3601 50.4752 37.3953C50.4752 36.8619 50.0427 36.4293 49.5092 36.4293C48.9756 36.4293 48.5432 36.8619 48.5432 37.3953C48.5432 39.4254 50.1947 41.0771 52.225 41.0771C54.2553 41.0771 55.9068 39.4255 55.9068 37.3953C55.9068 35.6995 54.754 34.2676 53.191 33.8422V32.2194H53.7705C54.304 32.2194 54.7365 31.7868 54.7365 31.2534C54.7365 30.7199 54.304 30.2874 53.7705 30.2874H53.191V21.5235H56.9653C57.4988 21.5235 57.9312 21.091 57.9312 20.5575V12.8546C57.9311 12.3211 57.4987 11.8887 56.9651 11.8887ZM4.99836 19.5917V15.1868L9.40322 19.5917H4.99836ZM10.7692 18.2255L6.3643 13.8207H10.7692V18.2255ZM17.9569 3.48329L19.7583 7.74107H16.1556L17.9569 3.48329ZM20.8423 52.9708H16.4374L20.8423 48.566V52.9708ZM15.0714 51.6049V40.8634L20.4422 46.2341L15.0714 51.6049ZM20.8423 43.9019L15.4714 38.5311L20.8423 33.1604V43.9019ZM15.0714 36.1991V26.0499L20.1459 31.1245L15.0714 36.1991ZM20.8423 29.0886L16.4374 24.6837H20.8423V29.0886ZM25.7802 18.3402H18.8239V15.4769C18.8239 14.9434 18.3915 14.5109 17.858 14.5109C17.3244 14.5109 16.892 14.9434 16.892 15.4769V19.3062C16.892 19.8397 17.3244 20.2722 17.858 20.2722H25.7801V22.7518H12.7011V9.67303H16.8919V12.3214C16.8919 12.8548 17.3243 13.2873 17.8578 13.2873C18.3914 13.2873 18.8238 12.8548 18.8238 12.3214V9.67303H21.2126C21.2137 9.67303 21.2149 9.67326 21.2161 9.67326C21.2177 9.67326 22.2371 9.67303 22.2371 9.67303C24.1908 9.67303 25.7801 11.2624 25.7801 13.216V18.3402H25.7802ZM27.712 18.2255V13.8207H32.1169L27.712 18.2255ZM29.0782 19.5917L34.1528 14.5171L39.2273 19.5917H29.0782ZM36.1886 13.8207H46.9301L41.5593 19.1915L36.1886 13.8207ZM43.8914 19.5917L49.2623 14.2208L54.6331 19.5917H43.8914ZM55.9992 18.2255L51.5943 13.8207H55.9992V18.2255Z" fill="#1C1C1C"/>
</g>
<defs>
<clipPath id="clip0">
<rect width="60" height="60" fill="white" transform="translate(0.5 0.0380859)"/>
</clipPath>
</defs>
</svg>
