<svg width="61" height="61" viewBox="0 0 61 61" fill="none" xmlns="http://www.w3.org/2000/svg">
<path d="M30.5 18.7881C33.6022 18.7881 36.125 16.2653 36.125 13.1631C36.125 10.0609 33.6022 7.53809 30.5 7.53809C27.3978 7.53809 24.875 10.0609 24.875 13.1631C24.875 16.2653 27.3978 18.7881 30.5 18.7881ZM30.5 9.41309C32.5681 9.41309 34.25 11.095 34.25 13.1631C34.25 15.2312 32.5681 16.9131 30.5 16.9131C28.4319 16.9131 26.75 15.2312 26.75 13.1631C26.75 11.095 28.4319 9.41309 30.5 9.41309Z" fill="#1C1C1C"/>
<path d="M54.6691 22.5379C52.3056 14.9329 46.3356 8.76228 38.8197 6.13822L39.5097 4.40479L36.6831 4.9701C34.8766 5.3301 32.9931 4.61197 31.8869 3.13729L30.5003 1.2876L29.1138 3.13729C28.0075 4.61197 26.125 5.3301 24.3175 4.9701L21.4909 4.40479L22.1809 6.13729C14.6434 8.75572 8.80376 14.7417 6.38219 22.3645C3.79563 23.5551 1.87844 26.0282 1.50813 28.9335C1.08907 32.2223 2.55626 35.3695 5.33688 37.147C5.82344 37.4582 6.12532 38.0563 6.12532 38.7098V40.3504C6.12532 42.2657 7.57469 43.8323 9.43094 44.0554C11.2741 46.8173 13.6797 49.2285 16.4378 51.0773V57.2254H5.18782V59.1004H55.8128V57.2254H42.6878V52.2154C46.5784 50.0732 49.8259 46.9588 52.1322 43.1629H57.6878V41.2879H55.8128V39.4129H59.5628V22.5379H54.6691ZM57.6878 30.0379H53.9378V24.4129H57.6878V30.0379ZM48.3128 37.5379V31.9129H52.0628V37.5379H48.3128ZM42.6878 31.9129H46.4378V37.5379H42.6878V31.9129ZM42.6878 30.0379V24.4129H46.4378V30.0379H42.6878ZM48.3128 30.0379V24.4129H52.0628V30.0379H48.3128ZM24.3231 6.87228C26.6528 7.20041 29.0294 6.2601 30.5003 4.40854C31.9713 6.2601 34.3488 7.20135 36.6784 6.87228C36.2894 9.23666 37.1988 11.6385 39.0944 13.1535C37.2006 14.6151 36.2444 16.9738 36.55 19.312C34.2138 19.0532 31.9281 20.0338 30.4994 21.9154C29.2225 20.3095 27.2659 19.3888 25.2456 19.3888C24.9381 19.3888 24.6297 19.4095 24.3222 19.4535C24.7122 17.0845 23.7991 14.6779 21.895 13.1629C23.7991 11.6479 24.7122 9.24135 24.3231 6.87228ZM6.34751 35.5673C4.18282 34.1845 3.04188 31.7338 3.36907 29.1707C3.74313 26.2298 6.15719 23.8523 9.10657 23.5185C9.36719 23.4895 9.62594 23.4754 9.88282 23.4754C11.5 23.4754 13.0272 24.0538 14.245 25.1423C15.6391 26.3863 16.4378 28.1713 16.4378 30.0379C16.4378 32.2785 15.3091 34.342 13.4191 35.557C12.4281 36.1935 11.8225 37.2754 11.7616 38.4754H10.8128V32.6779C11.9013 32.2898 12.6878 31.2585 12.6878 30.0379C12.6878 28.4873 11.4259 27.2254 9.87532 27.2254C8.32469 27.2254 7.06282 28.4873 7.06282 30.0379C7.06282 31.2585 7.84938 32.2898 8.93782 32.6779V38.4754H7.98626C7.91688 37.2651 7.31969 36.1888 6.34751 35.5673ZM8.93782 30.0379C8.93782 29.5213 9.35876 29.1004 9.87532 29.1004C10.3919 29.1004 10.8128 29.5213 10.8128 30.0379C10.8128 30.5545 10.3919 30.9754 9.87532 30.9754C9.35876 30.9754 8.93782 30.5545 8.93782 30.0379ZM8.00032 40.3504H11.7503C11.7503 41.3845 10.9094 42.2254 9.87532 42.2254C8.84126 42.2254 8.00032 41.3845 8.00032 40.3504ZM35.1878 42.2254V46.5192L31.4378 45.7692V57.2254H27.6878V43.8942L25.8128 44.2692V42.2254H35.1878ZM25.8128 46.1817V57.2254H18.3128V47.6817L25.8128 46.1817ZM33.3128 57.2254V48.0567L40.8128 49.5567V57.2254H33.3128ZM42.6878 50.0545V48.0192L37.0628 46.8942V40.3504H35.1878V38.4754H33.3128V40.3504H31.4378V36.6004H29.5628V40.3504H27.6878V38.4754H25.8128V40.3504H23.9378V44.6442L16.4378 46.1442V48.7776C14.5478 47.3545 12.8603 45.6445 11.4766 43.7273C12.7422 43.1245 13.6253 41.8429 13.6253 40.3504V38.6704C13.6253 38.0432 13.9347 37.4545 14.4334 37.1338C16.8625 35.5729 18.3128 32.9198 18.3128 30.0379C18.3128 27.6379 17.2853 25.3438 15.4947 23.7445C13.705 22.1451 11.2956 21.382 8.89563 21.6557C8.79344 21.667 8.69407 21.6885 8.59282 21.7035C11.0144 15.321 16.0825 10.327 22.5222 8.00104C22.5044 9.62854 21.6691 11.181 20.1916 12.067L18.3663 13.1629L20.1925 14.2588C22.2297 15.4813 23.0688 17.9695 22.1847 20.1773L21.4909 21.921L24.3175 21.3557C26.125 20.9967 28.0075 21.7138 29.1138 23.1885L30.5003 25.0382L31.9741 23.0742C33.0522 21.636 34.8231 20.9217 36.5997 21.2104L39.2341 21.6398L38.6716 20.1285C37.8634 17.9554 38.7194 15.5132 40.7059 14.3207L42.6353 13.1629L40.8091 12.067C39.3325 11.181 38.4981 9.62947 38.4794 8.00291C45.1272 10.4188 50.4353 15.8423 52.705 22.5379H40.8128V39.4129H44.5628V41.2879H42.6878V43.1629H49.9216C48.0325 45.9557 45.5669 48.2995 42.6878 50.0545ZM53.9378 41.2879H46.4378V39.4129H53.9378V41.2879ZM53.9378 37.5379V31.9129H57.6878V37.5379H53.9378Z" fill="#1C1C1C"/>
<path d="M57.6875 57.2256H59.5625V59.1006H57.6875V57.2256Z" fill="#1C1C1C"/>
<path d="M1.4375 57.2256H3.3125V59.1006H1.4375V57.2256Z" fill="#1C1C1C"/>
<path d="M35.1875 53.4756H38.9375V55.3506H35.1875V53.4756Z" fill="#1C1C1C"/>
<path d="M20.1875 49.7256H23.9375V51.6006H20.1875V49.7256Z" fill="#1C1C1C"/>
<path d="M20.1875 53.4756H23.9375V55.3506H20.1875V53.4756Z" fill="#1C1C1C"/>
<path d="M23.9375 27.2256H37.0625V29.1006H23.9375V27.2256Z" fill="#1C1C1C"/>
<path d="M35.1875 30.9756H37.0625V32.8506H35.1875V30.9756Z" fill="#1C1C1C"/>
<path d="M27.6875 30.9756H29.5625V32.8506H27.6875V30.9756Z" fill="#1C1C1C"/>
<path d="M23.9375 30.9756H25.8125V32.8506H23.9375V30.9756Z" fill="#1C1C1C"/>
<path d="M31.4375 30.9756H33.3125V32.8506H31.4375V30.9756Z" fill="#1C1C1C"/>
</svg>
