<svg width="61" height="61" viewBox="0 0 61 61" fill="none" xmlns="http://www.w3.org/2000/svg">
<path d="M50.1875 30.5688L52.1445 29.395C52.9755 28.8931 53.6632 28.1857 54.1414 27.3409C54.6196 26.4961 54.8723 25.5424 54.875 24.5716V24.4131C54.875 24.1644 54.7762 23.926 54.6004 23.7502C54.4246 23.5744 54.1861 23.4756 53.9375 23.4756H44.5625C44.3139 23.4756 44.0754 23.5744 43.8996 23.7502C43.7238 23.926 43.625 24.1644 43.625 24.4131V24.5716C43.6278 25.5424 43.8805 26.4962 44.3588 27.341C44.8372 28.1858 45.525 28.8931 46.3561 29.395L48.3125 30.5688V33.7881H40.9095L41.7454 25.3173C41.7485 25.2867 41.75 25.2559 41.75 25.2252C41.7486 24.7961 41.617 24.3776 41.3726 24.0249C41.1282 23.6722 40.7825 23.4021 40.3813 23.2501L34.0604 20.8798L33.5318 19.2939C34.0344 19.007 34.4523 18.5923 34.743 18.0919C35.0338 17.5915 35.1871 17.0231 35.1875 16.4443V12.2256C35.4361 12.2256 35.6746 12.1268 35.8504 11.951C36.0262 11.7752 36.125 11.5367 36.125 11.2881V10.1648C36.1256 9.47601 35.9092 8.80449 35.5064 8.24569C35.1036 7.68688 34.535 7.26921 33.8813 7.05199L32.6715 6.64875C32.5605 6.61173 32.4436 6.59583 32.3268 6.60188C31.7146 5.99972 30.89 5.66253 30.0312 5.66309H24.875C24.6264 5.66309 24.3879 5.76186 24.2121 5.93767C24.0363 6.11349 23.9375 6.35195 23.9375 6.60059V8.94434C23.938 9.5652 24.1143 10.1732 24.4462 10.698C24.778 11.2227 25.2518 11.6427 25.8125 11.9092V16.4443C25.8129 17.0231 25.9662 17.5915 26.257 18.0919C26.5477 18.5923 26.9656 19.007 27.4682 19.2939L26.9396 20.8798L20.6187 23.2501C20.2175 23.4021 19.8718 23.6722 19.6274 24.0249C19.383 24.3776 19.2514 24.7961 19.25 25.2252C19.25 25.2559 19.2515 25.2867 19.2546 25.3173L20.0905 33.7881H12.6875V30.5688L14.6445 29.395C15.4755 28.8931 16.1632 28.1857 16.6414 27.3409C17.1196 26.4961 17.3723 25.5424 17.375 24.5716V24.4131C17.375 24.1644 17.2762 23.926 17.1004 23.7502C16.9246 23.5744 16.6861 23.4756 16.4375 23.4756H7.0625C6.81386 23.4756 6.5754 23.5744 6.39959 23.7502C6.22377 23.926 6.125 24.1644 6.125 24.4131V24.5716C6.12777 25.5424 6.38049 26.4962 6.85883 27.341C7.33716 28.1858 8.02499 28.8931 8.85605 29.395L10.8125 30.5688V33.7881H2.375V35.6631H58.625V33.7881H50.1875V30.5688ZM45.583 25.3506H52.917C52.809 25.8538 52.5991 26.3296 52.3002 26.7486C52.0014 27.1676 51.6199 27.5211 51.1794 27.7871L49.25 28.9447L47.3207 27.7871C46.8801 27.5211 46.4987 27.1677 46.1998 26.7486C45.9009 26.3296 45.691 25.8538 45.583 25.3506ZM8.08297 25.3506H15.417C15.309 25.8538 15.0991 26.3296 14.8002 26.7486C14.5014 27.1676 14.1199 27.5211 13.6794 27.7871L11.75 28.9447L9.82074 27.7871C9.38014 27.5211 8.99867 27.1677 8.69981 26.7486C8.40095 26.3296 8.19102 25.8538 8.08297 25.3506ZM28.7322 21.431L29.3007 19.7256H31.6993L32.2678 21.431L30.5 23.7881L28.7322 21.431ZM33.3125 16.4443C33.3121 16.8172 33.1638 17.1746 32.9002 17.4383C32.6365 17.7019 32.2791 17.8502 31.9062 17.8506H29.0938C28.7209 17.8502 28.3635 17.7019 28.0998 17.4383C27.8362 17.1746 27.6879 16.8172 27.6875 16.4443V12.2256H33.3125V16.4443ZM33.3125 8.83887C33.5868 8.93558 33.8244 9.11508 33.9923 9.35258C34.1602 9.59008 34.2503 9.87386 34.25 10.1647V10.3506H33.3125V8.83887ZM25.8125 7.53809H30.0312C30.4041 7.53849 30.7615 7.68678 31.0252 7.95041C31.2888 8.21405 31.4371 8.5715 31.4375 8.94434V10.3506H27.2188C26.8459 10.3502 26.4885 10.2019 26.2248 9.93826C25.9612 9.67462 25.8129 9.31717 25.8125 8.94434V7.53809ZM21.1268 25.1968C21.1321 25.1543 21.1489 25.1141 21.1754 25.0804C21.2019 25.0468 21.237 25.021 21.2771 25.0058L23.1266 24.3122L23.9375 29.1782V33.7881H21.9746L21.1268 25.1968ZM25.8125 33.7881V29.1006C25.8125 29.049 25.8082 28.9974 25.7997 28.9465L24.976 24.0045L27.407 22.789L29.75 25.9131C29.8373 26.0295 29.9506 26.124 30.0807 26.1891C30.2109 26.2542 30.3545 26.2881 30.5 26.2881C30.6455 26.2881 30.7891 26.2542 30.9193 26.1891C31.0494 26.124 31.1627 26.0295 31.25 25.9131L33.593 22.789L36.0028 23.9939L35.2059 27.9792C35.1937 28.0398 35.1876 28.1013 35.1875 28.1631V33.7881H25.8125ZM37.0625 33.7881V28.2559L37.8528 24.3045L39.723 25.0058C39.763 25.021 39.7982 25.0468 39.8247 25.0805C39.8511 25.1141 39.8679 25.1543 39.8732 25.1968L39.0254 33.7881H37.0625Z" fill="#1C1C1C"/>
<path d="M58.625 37.5381H50.1875V39.4131H58.625V37.5381Z" fill="#1C1C1C"/>
<path d="M48.3125 37.5381H2.375V39.4131H48.3125V37.5381Z" fill="#1C1C1C"/>
<path d="M58.625 1.91309H8.9375V3.78809H58.625V1.91309Z" fill="#1C1C1C"/>
<path d="M7.0625 1.91309H2.375V3.78809H7.0625V1.91309Z" fill="#1C1C1C"/>
<path d="M23.9375 20.6631V18.7881H21.125V15.0381C21.125 14.8925 21.0911 14.749 21.026 14.6188L20.0885 12.7438C20.0106 12.5881 19.8909 12.4571 19.7428 12.3656C19.5947 12.2741 19.4241 12.2256 19.25 12.2256H18.3125V10.3506H16.4375V12.2256H15.5C15.3259 12.2256 15.1553 12.2741 15.0072 12.3656C14.8591 12.4571 14.7394 12.5881 14.6615 12.7438L13.724 14.6188C13.6589 14.749 13.625 14.8925 13.625 15.0381V18.7881H11.75V11.2881C11.75 11.1425 11.7161 10.999 11.651 10.8688L10.7135 8.99379C10.6356 8.83808 10.5159 8.70712 10.3678 8.6156C10.2197 8.52407 10.0491 8.47559 9.875 8.47559H8.9375V5.66309H7.0625V8.47559H6.125C5.95091 8.47559 5.78025 8.52407 5.63216 8.6156C5.48407 8.70712 5.36439 8.83808 5.28652 8.99379L4.34902 10.8688C4.28389 10.999 4.24998 11.1425 4.25 11.2881V18.7881H2.375V20.6631H23.9375ZM15.5 15.2595L16.0794 14.1006H18.6706L19.25 15.2595V18.7881H15.5V15.2595ZM6.125 11.5095L6.70438 10.3506H9.29562L9.875 11.5095V18.7881H6.125V11.5095Z" fill="#1C1C1C"/>
<path d="M56.889 11.2061C56.889 11.0605 56.8551 10.917 56.79 10.7869L55.8525 8.91188C55.7746 8.75614 55.6549 8.62516 55.5068 8.53362C55.3588 8.44207 55.1881 8.39357 55.014 8.39356H53.9375V5.66309H52.0625V8.39356H51.264C51.0899 8.39357 50.9192 8.44207 50.7711 8.53362C50.623 8.62516 50.5034 8.75614 50.4255 8.91188L49.488 10.7869C49.4229 10.917 49.389 11.0605 49.389 11.2061V18.7881H47.375V15.0381C47.375 14.8925 47.3411 14.749 47.276 14.6188L46.3385 12.7438C46.2606 12.5881 46.1409 12.4571 45.9928 12.3656C45.8447 12.2741 45.6741 12.2256 45.5 12.2256H44.5625V10.3506H42.6875V12.2256H41.75C41.5759 12.2256 41.4053 12.2741 41.2572 12.3656C41.1091 12.4571 40.9894 12.5881 40.9115 12.7438L39.974 14.6188C39.9089 14.749 39.875 14.8925 39.875 15.0381V18.7881H37.0625V20.6631H58.625V18.7881H56.889V11.2061ZM51.264 11.4274L51.8434 10.2686H54.4346L55.014 11.4274V18.7061H51.264V11.4274ZM41.75 18.7881V15.2595L42.3294 14.1006H44.9206L45.5 15.2595V18.7881H41.75Z" fill="#1C1C1C"/>
<path d="M34.25 28.1631H31.4375V30.0381H34.25V28.1631Z" fill="#1C1C1C"/>
<path d="M16.2031 41.2881H7.29688C6.73763 41.2887 6.20148 41.5112 5.80604 41.9066C5.4106 42.3021 5.18815 42.8382 5.1875 43.3975V45.0381C5.18751 45.2348 5.24942 45.4266 5.36447 45.5862C5.47951 45.7458 5.64186 45.8652 5.82852 45.9274L10.8125 47.5888V56.2881H8.9375V58.1631H14.5625V56.2881H12.6875V47.5888L17.6715 45.9274C17.8581 45.8652 18.0205 45.7458 18.1355 45.5862C18.2506 45.4266 18.3125 45.2348 18.3125 45.0381V43.3975C18.3118 42.8382 18.0894 42.3021 17.694 41.9066C17.2985 41.5112 16.7624 41.2887 16.2031 41.2881ZM16.4375 44.3624L11.75 45.9248L7.0625 44.3624V43.3975C7.0625 43.3353 7.08719 43.2757 7.13115 43.2317C7.1751 43.1878 7.23471 43.1631 7.29688 43.1631H16.2031C16.2653 43.1631 16.3249 43.1878 16.3689 43.2317C16.4128 43.2757 16.4375 43.3353 16.4375 43.3975V44.3624Z" fill="#1C1C1C"/>
<path d="M34.9531 41.2881H26.0469C25.4876 41.2887 24.9515 41.5112 24.556 41.9066C24.1606 42.3021 23.9382 42.8382 23.9375 43.3975V45.0381C23.9375 45.2348 23.9994 45.4266 24.1145 45.5862C24.2295 45.7458 24.3919 45.8652 24.5785 45.9274L29.5625 47.5888V56.2881H27.6875V58.1631H33.3125V56.2881H31.4375V47.5888L36.4215 45.9274C36.6081 45.8652 36.7705 45.7458 36.8855 45.5862C37.0006 45.4266 37.0625 45.2348 37.0625 45.0381V43.3975C37.0618 42.8382 36.8394 42.3021 36.444 41.9066C36.0485 41.5112 35.5124 41.2887 34.9531 41.2881ZM35.1875 44.3624L30.5 45.9248L25.8125 44.3624V43.3975C25.8125 43.3353 25.8372 43.2757 25.8811 43.2317C25.9251 43.1878 25.9847 43.1631 26.0469 43.1631H34.9531C35.0153 43.1631 35.0749 43.1878 35.1189 43.2317C35.1628 43.2757 35.1875 43.3353 35.1875 43.3975V44.3624Z" fill="#1C1C1C"/>
<path d="M53.7031 41.2881H44.7969C44.2376 41.2887 43.7015 41.5112 43.306 41.9066C42.9106 42.3021 42.6882 42.8382 42.6875 43.3975V45.0381C42.6875 45.2348 42.7494 45.4266 42.8645 45.5862C42.9795 45.7458 43.1419 45.8652 43.3285 45.9274L48.3125 47.5888V56.2881H46.4375V58.1631H52.0625V56.2881H50.1875V47.5888L55.1715 45.9274C55.3581 45.8652 55.5205 45.7458 55.6355 45.5862C55.7506 45.4266 55.8125 45.2348 55.8125 45.0381V43.3975C55.8118 42.8382 55.5894 42.3021 55.194 41.9066C54.7985 41.5112 54.2624 41.2887 53.7031 41.2881ZM53.9375 44.3624L49.25 45.9248L44.5625 44.3624V43.3975C44.5625 43.3353 44.5872 43.2757 44.6311 43.2317C44.6751 43.1878 44.7347 43.1631 44.7969 43.1631H53.7031C53.7653 43.1631 53.8249 43.1878 53.8689 43.2317C53.9128 43.2757 53.9375 43.3353 53.9375 43.3975V44.3624Z" fill="#1C1C1C"/>
</svg>
