<svg width="61" height="60" viewBox="0 0 61 60" fill="none" xmlns="http://www.w3.org/2000/svg">
<g clip-path="url(#clip0_414:1832)">
<path d="M52.4726 29.8827C50.0494 29.8827 48.0781 31.854 48.0781 34.2772C48.0781 36.7004 50.0494 38.6717 52.4726 38.6717C54.8958 38.6717 56.8672 36.7004 56.8672 34.2772C56.8672 31.854 54.8958 29.8827 52.4726 29.8827ZM52.4726 36.9139C51.0188 36.9139 49.8359 35.7311 49.8359 34.2772C49.8359 32.8233 51.0188 31.6405 52.4726 31.6405C53.9265 31.6405 55.1093 32.8233 55.1093 34.2772C55.1093 35.7311 53.9265 36.9139 52.4726 36.9139Z" fill="white"/>
<path d="M57.5703 43.9451H56.8672V43.6522C56.8672 41.8752 55.4214 40.4295 53.6445 40.4295H51.3008C49.5239 40.4295 48.0781 41.8752 48.0781 43.6522V43.9451H47.375C45.7596 43.9451 44.4453 45.2594 44.4453 46.8748C44.4453 48.4902 45.7596 49.8045 47.375 49.8045H48.0781V59.1209C48.0781 59.6063 48.4715 59.9998 48.957 59.9998C49.4425 59.9998 49.8359 59.6063 49.8359 59.1209V52.4389C50.5709 52.9919 51.484 53.3201 52.4726 53.3201C53.4612 53.3201 54.3744 52.9919 55.1094 52.4389V59.1209C55.1094 59.6063 55.5027 59.9998 55.9883 59.9998C56.4738 59.9998 56.8672 59.6063 56.8672 59.1209V49.8045H57.5703C59.1857 49.8045 60.5 48.4902 60.5 46.8748C60.5 45.2594 59.1857 43.9451 57.5703 43.9451ZM49.8359 43.6522C49.8359 42.8444 50.493 42.1873 51.3008 42.1873H53.6445C54.4523 42.1873 55.1094 42.8444 55.1094 43.6522V43.9451H49.8359V43.6522ZM52.4726 51.5623C51.3269 51.5623 50.3499 50.8274 49.9871 49.8045H54.9582C54.5954 50.8274 53.6184 51.5623 52.4726 51.5623ZM57.5703 48.0467H47.375C46.7288 48.0467 46.2031 47.521 46.2031 46.8748C46.2031 46.2287 46.7288 45.703 47.375 45.703H57.5703C58.2165 45.703 58.7422 46.2287 58.7422 46.8748C58.7422 47.521 58.2165 48.0467 57.5703 48.0467Z" fill="white"/>
<path d="M24.5083 58.2871L21.5937 57.3155V38.577C22.68 37.467 23.3515 35.9494 23.3515 34.2772V22.5585C23.3515 20.7815 21.9057 19.3359 20.1288 19.3359H14.2695C12.8087 19.3359 11.5727 20.3131 11.1787 21.6478C6.19588 21.2649 2.25781 17.0909 2.25781 12.0117C2.25781 11.5263 1.86441 11.1328 1.3789 11.1328C0.893397 11.1328 0.5 11.5263 0.5 12.0117C0.5 18.0161 5.15572 22.9537 11.0468 23.4039V34.2772C11.0468 35.9494 11.7183 37.467 12.8046 38.577V57.3155L9.88996 58.2871C9.42942 58.4406 9.18063 58.9383 9.33415 59.3988C9.45696 59.7672 9.79985 60 10.1678 60C10.2599 60 10.3537 59.9853 10.4459 59.9546L13.9615 58.7828C14.3203 58.6631 14.5624 58.3273 14.5624 57.949V39.8347C15.3621 40.2157 16.256 40.4295 17.1992 40.4295C18.1423 40.4295 19.0362 40.2157 19.8359 39.8347V57.949C19.8359 58.3273 20.0779 58.6631 20.4368 58.7828L23.9524 59.9546C24.0446 59.9853 24.1384 60 24.2305 60C24.5986 60 24.9413 59.767 25.0642 59.3988C25.2177 58.9383 24.9689 58.4406 24.5083 58.2871ZM19.8359 21.0937H20.1288C20.9366 21.0937 21.5937 21.7507 21.5937 22.5585V24.0233H19.8359V21.0937ZM16.3203 21.0937H18.0781V24.0233H16.3203V21.0937ZM12.8046 22.5585C12.8046 21.7507 13.4617 21.0937 14.2695 21.0937H14.5624V24.0233H12.8046V22.5585ZM17.1992 38.6717C14.776 38.6717 12.8046 36.7004 12.8046 34.2772V25.7811H21.5937V34.2772C21.5937 36.7004 19.6223 38.6717 17.1992 38.6717Z" fill="white"/>
<path d="M21.9135 7.47829C21.8894 7.44653 21.8638 7.4156 21.8349 7.38665C21.2747 6.74646 20.59 6.22462 19.8167 5.85947C20.3747 5.23697 20.7149 4.41537 20.7149 3.51561C20.7149 1.5771 19.1378 0 17.1993 0C15.2608 0 13.6837 1.5771 13.6837 3.51561C13.6837 4.41537 14.0239 5.23709 14.5819 5.85947C12.4948 6.84478 11.0469 8.96891 11.0469 11.4257C11.0469 14.8182 13.8069 17.5781 17.1992 17.5781C20.5915 17.5781 23.3515 14.8182 23.3515 11.4257C23.3515 9.92434 22.8102 8.5475 21.9135 7.47829ZM17.1992 1.75781C18.1685 1.75781 18.957 2.54636 18.957 3.51561C18.957 4.48486 18.1685 5.27342 17.1992 5.27342C16.2299 5.27342 15.4414 4.48486 15.4414 3.51561C15.4414 2.54636 16.2299 1.75781 17.1992 1.75781ZM17.1992 7.03122C18.2157 7.03122 19.1518 7.37903 19.8971 7.96063C18.2753 9.06453 16.123 9.06453 14.5013 7.96063C15.2466 7.37903 16.1827 7.03122 17.1992 7.03122ZM17.1992 15.8202C14.776 15.8202 12.8047 13.8489 12.8047 11.4257C12.8047 10.6562 13.0041 9.93254 13.3531 9.30278C14.4958 10.1315 15.8473 10.5467 17.1992 10.5467C18.5511 10.5467 19.9026 10.1316 21.0453 9.30278C21.3943 9.93254 21.5937 10.6562 21.5937 11.4257C21.5937 13.8489 19.6224 15.8202 17.1992 15.8202Z" fill="white"/>
<path d="M35.7148 11.7187C32.3225 11.7187 29.5625 14.4786 29.5625 17.871C29.5625 21.2635 32.3225 24.0233 35.7148 24.0233C39.1071 24.0233 41.8671 21.2635 41.8671 17.871C41.8671 14.4786 39.1071 11.7187 35.7148 11.7187ZM35.7148 13.4765C36.7313 13.4765 37.6674 13.8243 38.4127 14.4059C36.7909 15.5098 34.6386 15.5098 33.0169 14.4059C33.7622 13.8243 34.6983 13.4765 35.7148 13.4765ZM35.7148 22.2655C33.2916 22.2655 31.3203 20.2942 31.3203 17.871C31.3203 17.1015 31.5198 16.3778 31.8687 15.7481C33.0114 16.5768 34.3629 16.992 35.7148 16.992C37.0667 16.992 38.4182 16.5769 39.5609 15.7481C39.9099 16.3778 40.1093 17.1015 40.1093 17.871C40.1093 20.2942 38.138 22.2655 35.7148 22.2655Z" fill="white"/>
<path d="M40.9882 31.0547C41.4737 31.0547 41.8671 30.6612 41.8671 30.1758V29.8471C47.4347 29.3981 51.828 24.7242 51.828 19.043C51.828 18.5576 51.4346 18.1641 50.9491 18.1641C50.4636 18.1641 50.0702 18.5576 50.0702 19.043C50.0702 23.7993 46.3944 27.7105 41.7348 28.0918C41.3404 26.7577 40.1046 25.7811 38.6445 25.7811H34.7581C34.1139 25.0624 33.1793 24.6093 32.1406 24.6093C30.5055 24.6093 29.1275 25.7313 28.7362 27.246H27.1601C26.6746 27.246 26.2812 27.6395 26.2812 28.1249C26.2812 28.6103 26.6746 29.0038 27.1601 29.0038H28.625V32.8124C26.6865 32.8124 25.1094 34.3895 25.1094 36.328C25.1094 38.2665 26.6865 39.8436 28.625 39.8436H29.9145C30.2184 40.7119 30.7025 41.4809 31.3203 42.111V57.3155L28.4056 58.2871C27.9452 58.4406 27.6963 58.9384 27.8498 59.3988C27.9726 59.7671 28.3155 60 28.6835 60C28.7756 60 28.8693 59.9853 28.9615 59.9546L32.4772 58.7828C32.836 58.6631 33.0781 58.3273 33.0781 57.949V43.3585C33.8801 43.7361 34.7747 43.9451 35.7148 43.9451C36.6549 43.9451 37.5495 43.7361 38.3515 43.3585V49.8631C38.3515 50.0833 38.4341 50.2954 38.5831 50.4576L43.6249 55.9476V59.1209C43.6249 59.6062 44.0183 59.9998 44.5038 59.9998C44.9893 59.9998 45.3827 59.6062 45.3827 59.1209V55.6052C45.3827 55.3851 45.3001 55.1729 45.1512 55.0108L40.1093 49.5208V42.1112C40.7271 41.4809 41.2112 40.7121 41.5151 39.8437H42.8046C44.7431 39.8437 46.3202 38.2666 46.3202 36.3281C46.3202 34.3896 44.7431 32.8125 42.8046 32.8125H35.6562V28.125C35.6562 27.9253 35.6386 27.7297 35.6064 27.5391H38.6445C39.4522 27.5391 40.1093 28.1961 40.1093 29.0039V30.1758C40.1093 30.6612 40.5027 31.0547 40.9882 31.0547ZM38.7224 41.006C38.6692 41.0438 38.6207 41.0874 38.5771 41.1358C37.8044 41.7977 36.8018 42.1873 35.7148 42.1873C34.6278 42.1873 33.6252 41.7978 32.8525 41.1358C32.809 41.0874 32.7604 41.0437 32.7072 41.006C32.3535 40.6744 32.0541 40.2828 31.8247 39.8436H39.6049C39.3755 40.2828 39.0761 40.6744 38.7224 41.006ZM42.8046 34.5702C43.7739 34.5702 44.5624 35.3587 44.5624 36.328C44.5624 37.2972 43.7739 38.0858 42.8046 38.0858H40.874C40.8733 38.0858 30.5575 38.0858 30.5575 38.0858C30.5551 38.0858 28.625 38.0858 28.625 38.0858C27.6556 38.0858 26.8672 37.2972 26.8672 36.328C26.8672 35.3587 27.6557 34.5702 28.625 34.5702V35.4491C28.625 35.9345 29.0184 36.328 29.5039 36.328C29.9894 36.328 30.3828 35.9345 30.3828 35.4491V28.1249C30.3828 27.1556 31.1713 26.3671 32.1406 26.3671C33.1099 26.3671 33.8984 27.1556 33.8984 28.1249V33.6913C33.8984 34.1767 34.2918 34.5702 34.7773 34.5702H42.8046Z" fill="white"/>
</g>
<defs>
<clipPath id="clip0_414:1832">
<rect width="60" height="60" fill="white" transform="translate(0.5)"/>
</clipPath>
</defs>
</svg>
