<svg width="60" height="61" viewBox="0 0 60 61" fill="none" xmlns="http://www.w3.org/2000/svg">
<g clip-path="url(#clip0)">
<path d="M11.1028 34.7471C10.0696 35.36 9.375 36.4864 9.375 37.7725C9.375 39.711 10.9521 41.2881 12.8906 41.2881C14.4183 41.2881 15.7209 40.3083 16.2047 38.9443H25.3125C27.251 38.9443 28.8281 40.5214 28.8281 42.46C28.8281 44.3985 27.251 45.9756 25.3125 45.9756H11.25C8.01914 45.9756 5.39062 48.6041 5.39062 51.835C5.39062 55.0658 8.01914 57.6943 11.25 57.6943H22.9688C23.616 57.6943 24.1406 57.1697 24.1406 56.5225C24.1406 55.8752 23.616 55.3506 22.9688 55.3506H11.25C9.31148 55.3506 7.73438 53.7735 7.73438 51.835C7.73438 49.8964 9.31148 48.3193 11.25 48.3193H25.3125C28.5434 48.3193 31.1719 45.6908 31.1719 42.46C31.1719 39.2291 28.5434 36.6006 25.3125 36.6006H16.2047C15.9275 35.8192 15.3817 35.1642 14.6784 34.7471L23.629 20.0617C25.037 17.9453 25.7812 15.4792 25.7812 12.9287C25.7812 5.82082 19.9985 0.0380859 12.8906 0.0380859C5.78273 0.0380859 0 5.82082 0 12.9287C0 15.4792 0.744258 17.9453 2.15227 20.0617L11.1028 34.7471ZM12.8906 38.9443C12.2445 38.9443 11.7188 38.4186 11.7188 37.7725C11.7188 37.1263 12.2445 36.6006 12.8906 36.6006C13.5368 36.6006 14.0625 37.1263 14.0625 37.7725C14.0625 38.4186 13.5368 38.9443 12.8906 38.9443ZM12.8906 2.38184C18.7062 2.38184 23.4375 7.11316 23.4375 12.9287C23.4375 15.0226 22.825 17.0461 21.6662 18.7805C21.6572 18.7939 21.6484 18.8077 21.64 18.8216L12.8906 33.177C12.8906 33.177 4.12406 18.7939 4.11504 18.7805C2.95629 17.0461 2.34375 15.0226 2.34375 12.9287C2.34375 7.11316 7.07508 2.38184 12.8906 2.38184Z" fill="#1C1C1C"/>
<path d="M12.8906 18.7881C16.1215 18.7881 18.75 16.1596 18.75 12.9287C18.75 9.69785 16.1215 7.06934 12.8906 7.06934C9.65977 7.06934 7.03125 9.69785 7.03125 12.9287C7.03125 16.1596 9.65977 18.7881 12.8906 18.7881ZM12.8906 9.41309C14.8291 9.41309 16.4062 10.9902 16.4062 12.9287C16.4062 14.8672 14.8291 16.4443 12.8906 16.4443C10.9521 16.4443 9.375 14.8672 9.375 12.9287C9.375 10.9902 10.9521 9.41309 12.8906 9.41309Z" fill="#1C1C1C"/>
<path d="M47.1094 19.4912C40.0015 19.4912 34.2188 25.2739 34.2188 32.3818C34.2188 34.9364 34.9654 37.4063 36.3778 39.5249L45.295 53.5124C44.6045 53.9302 44.0691 54.5789 43.7954 55.3506H33.5156C32.8684 55.3506 32.3438 55.8752 32.3438 56.5225C32.3438 57.1697 32.8684 57.6943 33.5156 57.6943H43.7953C44.2791 59.0583 45.5816 60.0381 47.1094 60.0381C49.0479 60.0381 50.625 58.461 50.625 56.5225C50.625 55.2473 49.9426 54.1288 48.9239 53.5124L57.8411 39.5249C59.2534 37.4063 60 34.9364 60 32.3818C60 25.2739 54.2173 19.4912 47.1094 19.4912ZM47.1094 57.6943C46.4632 57.6943 45.9375 57.1686 45.9375 56.5225C45.9375 55.8763 46.4632 55.3506 47.1094 55.3506C47.7555 55.3506 48.2812 55.8763 48.2812 56.5225C48.2812 57.1686 47.7555 57.6943 47.1094 57.6943ZM55.885 38.2336C55.8804 38.2406 47.1094 51.9987 47.1094 51.9987C47.1094 51.9987 38.3384 38.2405 38.3338 38.2336C37.175 36.4992 36.5625 34.4757 36.5625 32.3818C36.5625 26.5663 41.2938 21.835 47.1094 21.835C52.9249 21.835 57.6562 26.5663 57.6562 32.3818C57.6562 34.4757 57.0437 36.4992 55.885 38.2336Z" fill="#1C1C1C"/>
<path d="M47.1094 26.5225C43.8785 26.5225 41.25 29.151 41.25 32.3818C41.25 35.6127 43.8785 38.2412 47.1094 38.2412C50.3402 38.2412 52.9688 35.6127 52.9688 32.3818C52.9688 29.151 50.3402 26.5225 47.1094 26.5225ZM47.1094 35.8975C45.1709 35.8975 43.5938 34.3204 43.5938 32.3818C43.5938 30.4433 45.1709 28.8662 47.1094 28.8662C49.0479 28.8662 50.625 30.4433 50.625 32.3818C50.625 34.3204 49.0479 35.8975 47.1094 35.8975Z" fill="#1C1C1C"/>
<path d="M28.2422 57.6943C28.8894 57.6943 29.4141 57.1697 29.4141 56.5225C29.4141 55.8753 28.8894 55.3506 28.2422 55.3506C27.595 55.3506 27.0703 55.8753 27.0703 56.5225C27.0703 57.1697 27.595 57.6943 28.2422 57.6943Z" fill="#1C1C1C"/>
</g>
<defs>
<clipPath id="clip0">
<rect width="60" height="60" fill="white" transform="translate(0 0.0380859)"/>
</clipPath>
</defs>
</svg>
