<svg width="61" height="60" viewBox="0 0 61 60" fill="none" xmlns="http://www.w3.org/2000/svg">
<g clip-path="url(#clip0_414:1704)">
<path d="M20.5 0C12.2157 0 5.5 6.71575 5.5 15V26C5.50438 29.8641 8.63587 32.9956 12.5 33H13.5V31H12.5C9.74 30.9967 7.50325 28.76 7.5 26V15C7.5 7.82025 13.3203 2 20.5 2C27.6798 2 33.5 7.82025 33.5 15V26C33.4967 28.76 31.26 30.9967 28.5 31H27.5V33H28.5C32.3641 32.9956 35.4956 29.8641 35.5 26V15C35.5 6.71575 28.7843 0 20.5 0Z" fill="white"/>
<path d="M8.74067 47.129L9.47167 45.978L7.78267 44.906L7.05167 46.058C4.84079 49.542 5.00492 54.028 7.46467 57.341V60H9.46467V57C9.46479 56.7729 9.38754 56.5524 9.24567 56.375C7.11967 53.7173 6.91679 50.0025 8.74067 47.129Z" fill="white"/>
<path d="M55.5 0H42.5C39.74 0.00325 37.5033 2.24 37.5 5V15C37.5033 17.76 39.74 19.9967 42.5 20H44.5V24C44.4999 24.4044 44.7434 24.7691 45.117 24.924C45.2384 24.9746 45.3685 25.0004 45.5 25C45.7653 25 46.0195 24.8945 46.207 24.707L50.914 20H55.5C58.26 19.9967 60.4967 17.76 60.5 15V5C60.4967 2.24 58.26 0.00325 55.5 0ZM58.5 15C58.5 16.6569 57.1569 18 55.5 18H50.5C50.2347 18 49.9805 18.1055 49.793 18.293L46.5 21.586V19C46.5 18.4478 46.0522 18 45.5 18H42.5C40.8431 18 39.5 16.6569 39.5 15V5C39.5 3.34312 40.8431 2 42.5 2H55.5C57.1569 2 58.5 3.34312 58.5 5V15Z" fill="white"/>
<path d="M49.5 5H42.5V7H49.5V5Z" fill="white"/>
<path d="M55.5 5H51.5V7H55.5V5Z" fill="white"/>
<path d="M55.5 9H42.5V11H55.5V9Z" fill="white"/>
<path d="M49.5 13H42.5V15H49.5V13Z" fill="white"/>
<path d="M33.9483 46.058L33.2173 44.906L31.5283 45.978L32.2593 47.13C34.0833 50.0031 33.8804 53.7176 31.7543 56.375C31.6124 56.5524 31.5352 56.7729 31.5353 57V60H33.5353V57.341C35.9951 54.028 36.1592 49.542 33.9483 46.058Z" fill="white"/>
<path d="M59.5 34H50.5C46.748 34.0044 43.6667 36.9661 43.514 40.715L40.5 46.141V42C40.4956 38.1359 37.3641 35.0044 33.5 35H29.845L29.818 34.979L29.8 35H27.5C26.3954 35 25.5 34.1046 25.5 33V30.647C28.5899 28.863 30.4953 25.5679 30.5 22V14C30.4985 12.3431 30.0862 10.7125 29.3 9.254C29.0481 8.79 28.4789 8.60163 28 8.82401L11.074 16.788C10.7235 16.953 10.4999 17.3056 10.5 17.693V22C10.5048 25.5679 12.4101 28.863 15.5 30.647V33C15.5 34.1046 14.6046 35 13.5 35H7.5C3.63587 35.0044 0.504375 38.1359 0.5 42V60H2.5V42C2.50325 39.24 4.74 37.0033 7.5 37H10.682L19.687 49.582C19.872 49.8406 20.169 49.9958 20.487 50H20.5C20.8148 50 21.1111 49.8518 21.3 49.6L30.8 37H33.5C36.26 37.0033 38.4967 39.24 38.5 42V50C38.5005 50.5523 38.9486 50.9996 39.5009 50.9991C39.8636 50.9988 40.1978 50.8021 40.374 50.485L45.088 42H50.821L41.071 60H43.346L53.1 42H53.5C57.3641 41.9956 60.4956 38.8641 60.5 35C60.5 34.4478 60.0522 34 59.5 34ZM12.5 22V18.328L27.941 11.062C28.3104 11.9975 28.5 12.9943 28.5 14V22C28.5 26.4183 24.9183 30 20.5 30C16.0817 30 12.5 26.4183 12.5 22ZM20.521 47.312L17.435 43H23.771L20.521 47.312ZM25.284 41H16L13.137 37H13.5C15.7091 37 17.5 35.2091 17.5 33V31.539C19.4527 32.1536 21.5473 32.1536 23.5 31.539V33C23.5 35.2091 25.2909 37 27.5 37H28.3L25.284 41ZM53.5 40H45.6C46.0781 37.6734 48.1247 36.0026 50.5 36H58.4C57.9219 38.3266 55.8753 39.9974 53.5 40Z" fill="white"/>
</g>
<defs>
<clipPath id="clip0_414:1704">
<rect width="60" height="60" fill="white" transform="translate(0.5)"/>
</clipPath>
</defs>
</svg>
