<svg width="61" height="61" viewBox="0 0 61 61" fill="none" xmlns="http://www.w3.org/2000/svg">
<g clip-path="url(#clip0)">
<path d="M48.9877 27.0302V27.3302H49.2877H60.2V30.2459H58.2832H57.9832V30.5459V56.5225V56.8225H58.2832H60.2V59.7381H0.8V56.8225H2.71684H3.01684V56.5225V30.546V30.246H2.71684H0.8V27.3304H11.7123H12.0123V27.0304V23.2675L28.8836 14.2491L29.0422 14.1644V13.9846V0.338086H42.1096V9.50367H32.2578H31.9578V9.80367V13.9846V14.1644L32.1164 14.2491L48.9877 23.2675V27.0302ZM32.2578 3.25371H31.9578V3.55371V6.28805V6.58805H32.2578H38.894H39.194V6.28805V3.55371V3.25371H38.894H32.2578ZM15.0865 24.9302L14.9279 25.0149V25.1947V27.0302V27.3302H15.2279H45.7722H46.0722V27.0302V25.1947V25.0149L45.9136 24.9302L30.6414 16.7668L30.5 16.6912L30.3586 16.7668L15.0865 24.9302ZM42.3234 30.5459V30.2459H42.0234H38.5078H38.2078V30.5459V48.2802V48.5802H38.5078H42.0234H42.3234V48.2802V30.5459ZM25.5391 30.2459H25.2391V30.5459V48.2802V48.5802H25.5391H34.9923H35.2923V48.2802V30.5459V30.2459H34.9923H25.5391ZM22.3235 30.5459V30.2459H22.0235H18.5079H18.2079V30.5459V48.2803V48.5803H18.5079H22.0235H22.3235V48.2803V30.5459ZM14.9922 48.5802H15.2922V48.2802V30.5459V30.2459H14.9922H6.23246H5.93246V30.5459V56.5225V56.8225H6.23246H11.7123H12.0123V56.5225V48.5802H14.9922ZM45.7722 56.8225H46.0722V56.5225V51.7959V51.4959H45.7722H15.2279H14.9279V51.7959V56.5225V56.8225H15.2279H45.7722ZM54.7675 56.8225H55.0675V56.5225V30.5459V30.2459H54.7675H45.539H45.239V30.5459V48.2803V48.5803H45.539H48.9877V56.5225V56.8225H49.2877H54.7675Z" fill="#1C1C1C" stroke="white" stroke-width="0.6"/>
</g>
<defs>
<clipPath id="clip0">
<rect width="60" height="60" fill="white" transform="translate(0.5 0.0380859)"/>
</clipPath>
</defs>
</svg>
