<svg width="61" height="60" viewBox="0 0 61 60" fill="none" xmlns="http://www.w3.org/2000/svg">
<g clip-path="url(#clip0_414:1871)">
<path d="M46.9736 31.0944C45.5902 31.0944 44.2836 30.4855 43.3793 29.4169C42.5496 28.4361 42.1485 27.1859 42.2445 25.9226H34.7822C34.1351 25.9226 33.6104 25.3979 33.6104 24.7507V16.8478C33.6104 16.5 33.7648 16.1701 34.0321 15.9475C34.2993 15.7248 34.6521 15.6326 34.9937 15.6952L35.0639 15.708C35.7688 15.8372 36.4887 15.6476 37.0391 15.1887C37.5897 14.7296 37.9055 14.0554 37.9055 13.3385C37.9055 12.6218 37.5898 11.9476 37.0393 11.4887C36.4888 11.0299 35.7687 10.8408 35.0637 10.9697L34.9936 10.9826C34.6513 11.0453 34.2992 10.9528 34.0321 10.7302C33.765 10.5075 33.6105 10.1777 33.6105 9.82992V1.17188C33.6105 0.524648 34.1352 0 34.7823 0H54.2229C57.1509 0 59.533 2.38207 59.533 5.31012V24.7507C59.533 25.3979 59.0084 25.9226 58.3612 25.9226H51.7053C51.8155 27.1581 51.4394 28.3896 50.644 29.3582C49.7548 30.4409 48.4422 31.0734 47.0425 31.0939C47.0195 31.0943 46.9966 31.0944 46.9736 31.0944ZM35.9542 23.5788H43.6229C43.9705 23.5788 44.3003 23.7333 44.5231 24.0004C44.7456 24.2674 44.8383 24.6196 44.7756 24.9616L44.6159 25.8346C44.4807 26.5739 44.6821 27.3278 45.1687 27.9029C45.6399 28.4598 46.2943 28.7593 47.0083 28.7503C47.717 28.74 48.3821 28.4193 48.8328 27.8706C49.2832 27.322 49.4683 26.607 49.3404 25.9086L49.1672 24.9615C49.1046 24.6195 49.1972 24.2673 49.4199 24.0002C49.6425 23.7332 49.9723 23.5787 50.32 23.5787H57.1892V5.31012C57.1892 3.67441 55.8585 2.34375 54.2229 2.34375H35.9542V8.60766C36.895 8.69777 37.7959 9.06832 38.5398 9.68848C39.6262 10.594 40.2491 11.9244 40.2491 13.3385C40.2491 14.7527 39.6262 16.0833 38.5398 16.9888C37.7958 17.6091 36.895 17.9797 35.9542 18.07V23.5788Z" fill="white"/>
<path d="M49.7962 40.664C50.4434 40.664 50.9681 40.1394 50.9681 39.4922V35.2493C50.9681 34.6021 50.4434 34.0774 49.7962 34.0774H41.7552C41.4075 34.0774 41.0777 34.2319 40.855 34.4989C40.6324 34.766 40.5398 35.1182 40.6024 35.4602L40.7757 36.4073C40.9036 37.1057 40.7185 37.8207 40.2679 38.3693C39.8172 38.9181 39.1522 39.2387 38.4436 39.249C37.7287 39.257 37.075 38.9585 36.6039 38.4016C36.1174 37.8265 35.9159 37.0726 36.0512 36.3334L36.2109 35.4603C36.2735 35.1183 36.1809 34.7661 35.9584 34.4989C35.7357 34.2319 35.4058 34.0774 35.0581 34.0774H27.3894V28.5685C28.3303 28.4783 29.2311 28.1078 29.9751 27.4875C31.0614 26.5819 31.6843 25.2514 31.6843 23.8372C31.6843 22.423 31.0613 21.0926 29.975 20.1871C29.231 19.5669 28.3302 19.1964 27.3894 19.1062V11.6705C27.3894 11.0232 26.8647 10.4986 26.2175 10.4986H6.77691C3.84887 10.4986 1.4668 12.8807 1.4668 15.8087V54.6899C1.4668 57.6179 3.84887 60 6.77691 60H45.6581C48.586 60 50.9682 57.6179 50.9682 54.6899V51.289C50.9682 50.6417 50.4436 50.1171 49.7963 50.1171C49.1492 50.1171 48.6245 50.6417 48.6245 51.289V54.6899C48.6245 56.3255 47.2938 57.6562 45.6581 57.6562H27.3894V50.0974C27.3894 49.7498 27.235 49.4201 26.9681 49.1974C26.7011 48.9748 26.3489 48.8821 26.007 48.9445L25.9361 48.9574C25.2311 49.0864 24.511 48.8974 23.9607 48.4386C23.4102 47.9798 23.0943 47.3057 23.0943 46.5882C23.0943 45.8715 23.41 45.1972 23.9607 44.7383C24.5112 44.2793 25.2311 44.09 25.9368 44.2193L26.007 44.2321C26.3486 44.2943 26.701 44.2018 26.9681 43.9792C27.235 43.7565 27.3894 43.4269 27.3894 43.0792V36.4209H33.6798C33.5837 37.6842 33.9848 38.9344 34.8146 39.9151C35.7338 41.0016 37.073 41.6142 38.4777 41.5923C39.8772 41.5719 41.19 40.9392 42.0792 39.8565C42.8745 38.8881 43.2507 37.6564 43.1404 36.4209H48.6245V39.4922C48.6243 40.1394 49.1491 40.664 49.7962 40.664ZM3.81055 15.8087C3.81055 14.1731 5.14133 12.8423 6.77691 12.8423H25.0456V20.3284C25.0456 20.6761 25.2 21.0057 25.467 21.2284C25.7341 21.4509 26.0863 21.5434 26.4282 21.4812L26.4984 21.4684C26.4984 21.4684 26.4986 21.4683 26.4988 21.4683C27.2036 21.3394 27.9239 21.5284 28.4744 21.9873C29.025 22.4463 29.3407 23.1205 29.3407 23.8372C29.3407 24.5539 29.025 25.2283 28.4744 25.6873C27.9239 26.1462 27.2039 26.3354 26.4989 26.2065L26.4284 26.1936C26.0864 26.131 25.7342 26.2236 25.4671 26.4463C25.2001 26.6689 25.0456 26.9987 25.0456 27.3464V34.0774H20.0173C19.4427 32.0913 17.6146 30.6593 15.4518 30.6593C13.289 30.6593 11.4611 32.0913 10.8864 34.0774H3.81055V15.8087ZM22.46 42.9381C21.3737 43.8436 20.7506 45.1741 20.7506 46.589C20.7506 48.0033 21.3737 49.3337 22.46 50.2392C23.204 50.8594 24.105 51.2298 25.0456 51.3198V57.6562H6.77691C5.14133 57.6562 3.81055 56.3256 3.81055 54.6899V36.4212H11.8741C12.5015 36.4212 13.0176 35.927 13.0449 35.3003C13.1009 34.0121 14.1582 33.0032 15.452 33.0032C16.7456 33.0032 17.803 34.0121 17.859 35.3003C17.8863 35.9271 18.4024 36.4212 19.0298 36.4212H25.0457V41.8573C24.1047 41.9474 23.2039 42.3179 22.46 42.9381Z" fill="white"/>
<path d="M49.7958 46.5012C49.305 46.5012 48.8593 46.1851 48.6934 45.724C48.5304 45.271 48.6698 44.7472 49.0377 44.4361C49.4222 44.1108 49.9862 44.0701 50.4142 44.3348C50.8246 44.5888 51.0401 45.0855 50.9454 45.559C50.8372 46.1001 50.3473 46.5012 49.7958 46.5012Z" fill="white"/>
</g>
<defs>
<clipPath id="clip0_414:1871">
<rect width="60" height="60" fill="white" transform="translate(0.5)"/>
</clipPath>
</defs>
</svg>
