<svg width="61" height="61" viewBox="0 0 61 61" fill="none" xmlns="http://www.w3.org/2000/svg">
<g clip-path="url(#clip0)">
<path d="M52.0625 34.7256H50.1875V36.6006H52.0625V34.7256Z" fill="#1C1C1C"/>
<path d="M52.0625 42.2256H50.1875V44.1006H52.0625V42.2256Z" fill="#1C1C1C"/>
<path d="M52.0625 49.7256H50.1875V51.6006H52.0625V49.7256Z" fill="#1C1C1C"/>
<path d="M57.6875 27.2256H53.4847C53.0066 25.0365 51.9781 23.0087 50.4762 21.3212C49.7947 20.5553 48.9988 19.9375 48.1466 19.4931C49.8556 18.3071 50.9788 16.3337 50.9788 14.1006V13.1631H46.2913C43.9025 13.1631 41.8147 14.4503 40.6663 16.3628V14.1006C40.6663 12.0325 42.3481 10.3506 44.4163 10.3506V8.47559C41.3141 8.47559 38.7913 10.9984 38.7913 14.1006V19.3028C36.0172 18.2978 32.8981 19.0496 30.905 21.2659C30.6641 21.534 30.4381 21.8125 30.2216 22.0975L30.3031 21.7065C30.4334 21.0784 30.5 20.4343 30.5 19.7256C30.5 17.0921 29.405 14.7128 27.6509 13.0084L30.9378 8.1709C31.0081 8.06684 31.0719 7.95715 31.1309 7.83996C31.8463 6.4084 31.2641 4.6609 29.8325 3.94559L29.5981 3.8284C28.9053 3.48152 28.1187 3.42527 27.3828 3.6709C26.6469 3.91652 26.0506 4.43309 25.6962 5.13996C25.6456 5.24027 25.6016 5.34434 25.5641 5.4484L23.6525 10.7059C23.5231 10.6693 23.3919 10.6356 23.2606 10.6046L23.9225 3.97746C23.9328 3.88559 23.9375 3.79184 23.9375 3.69902C23.9375 2.19715 22.715 0.975586 21.2141 0.975586H21.0369C19.535 0.975586 18.3125 2.19715 18.3125 3.69902C18.3125 3.79277 18.3172 3.88559 18.3266 3.9709L18.9894 10.6065C18.8572 10.6375 18.7269 10.6712 18.5975 10.7078L16.6869 5.45121C16.6484 5.34527 16.6044 5.24121 16.5472 5.12684C16.2003 4.43309 15.6041 3.91652 14.8681 3.6709C14.1331 3.42527 13.3466 3.48152 12.6528 3.8284L12.4184 3.94559C10.9878 4.66184 10.4056 6.4084 11.1219 7.84371C11.18 7.95715 11.2428 8.0659 11.315 8.17277L14.6037 13.0131C12.8469 14.7268 11.75 17.124 11.75 19.7931C11.75 20.4343 11.8166 21.0784 11.9478 21.7056L13.0981 27.2256H11.75C10.7159 27.2256 9.875 28.0665 9.875 29.1006V29.1756C9.5675 29.1315 9.25625 29.1006 8.9375 29.1006H4.25V30.0381C4.25 32.2712 5.37313 34.2446 7.08219 35.4306C6.22906 35.875 5.43312 36.4928 4.7525 37.2596C2.615 39.6615 1.4375 42.7571 1.4375 45.9756C1.4375 49.5775 2.86719 52.9365 5.46313 55.435C7.9325 57.8106 11.1444 59.1015 14.5569 59.1015C14.7322 59.1015 14.9066 59.0978 15.0828 59.0912C18.4194 58.9628 21.4541 57.5537 23.7106 55.3515H51.125C53.7097 55.3515 55.8125 53.2487 55.8125 50.664V32.8506H57.6875C58.7216 32.8506 59.5625 32.0096 59.5625 30.9756V29.1006C59.5625 28.0665 58.7216 27.2256 57.6875 27.2256ZM46.2913 15.0381H49.0091C48.5731 17.1746 46.6803 18.7881 44.4163 18.7881H41.6984C42.1334 16.6515 44.0272 15.0381 46.2913 15.0381ZM32.2981 22.5193C33.8253 20.8225 36.3519 20.2628 38.4425 21.1571C38.555 21.205 38.6741 21.2425 38.7913 21.2828V23.2843C37.8603 22.9375 36.9762 22.2071 36.6406 21.8734L35.3159 23.2009C35.5353 23.4212 37.5284 25.3506 39.7288 25.3506C41.9291 25.3506 43.9222 23.4212 44.1416 23.2009L42.8169 21.8734C42.4813 22.2062 41.5972 22.9365 40.6663 23.2843V20.6631H44.4163C44.7341 20.6631 45.0434 20.6331 45.3491 20.589C46.6625 20.6828 48.0519 21.4178 49.0756 22.5671C50.2709 23.9096 51.1119 25.5043 51.5553 27.2256H29.7772C30.2253 25.4837 31.0812 23.8721 32.2981 22.5193ZM27.3266 6.08777C27.3397 6.05215 27.3538 6.01746 27.3809 5.96496C27.5037 5.71934 27.7137 5.53652 27.9753 5.44934C28.2378 5.36215 28.5144 5.38277 28.76 5.50559L28.9944 5.62277C29.5016 5.8759 29.7078 6.49465 29.4556 6.99809C29.435 7.04027 29.4097 7.08246 29.3853 7.11902L26.1772 11.8403C25.925 11.6781 25.6653 11.5281 25.3981 11.3903L27.3266 6.08777ZM20.1875 3.69902C20.1875 3.23121 20.5681 2.85059 21.0359 2.85059H21.2131C21.6809 2.85059 22.0616 3.23121 22.0569 3.7834L21.3988 10.3646C21.3078 10.3618 21.2178 10.3506 21.125 10.3506C21.0322 10.3506 20.9422 10.3618 20.8503 10.3646L20.1875 3.69902ZM12.8666 7.12184C12.8403 7.08246 12.815 7.04121 12.7963 7.00184C12.5422 6.49465 12.7484 5.8759 13.2556 5.62277L13.49 5.50559C13.7347 5.38371 14.0131 5.36215 14.2747 5.44934C14.5353 5.53652 14.7463 5.71934 14.8784 5.98277C14.8962 6.01652 14.9103 6.05121 14.9244 6.08871L16.8528 11.3921C16.5856 11.53 16.3259 11.68 16.0747 11.8421L12.8666 7.12184ZM21.125 12.2256C25.2603 12.2256 28.625 15.5903 28.625 19.7931C28.625 20.3059 28.5716 20.8206 28.4675 21.3231L27.2375 27.2256H16.7956C17.4547 26.649 18.3069 26.2881 19.25 26.2881V24.4131C17.4781 24.4131 15.8975 25.2381 14.8653 26.5225L13.7816 21.3231C13.6784 20.8206 13.625 20.3059 13.625 19.7256C13.625 15.5903 16.9897 12.2256 21.125 12.2256ZM11.75 29.1006H13.7094C13.6578 29.4062 13.625 29.7184 13.625 30.0381V31.0796C13.0869 30.5293 12.4522 30.0784 11.75 29.7437V29.1006ZM8.9375 30.9756C11.2016 30.9756 13.0953 32.589 13.5303 34.7256H10.8125C8.54844 34.7256 6.65469 33.1121 6.21969 30.9756H8.9375ZM15.0106 57.2171C11.9 57.3287 8.98813 56.2234 6.76344 54.0831C4.53875 51.9418 3.3125 49.0628 3.3125 45.9756C3.3125 43.2165 4.32125 40.5643 6.15219 38.5046C7.17594 37.3543 8.56531 36.6193 9.87969 36.5265C10.1853 36.5706 10.4947 36.6006 10.8125 36.6006H13.625V39.2218C12.6941 38.875 11.81 38.1446 11.4744 37.8109L10.1497 39.1384C10.3691 39.3587 12.3622 41.2881 14.5625 41.2881C16.7628 41.2881 18.7559 39.3587 18.9753 39.1384L17.6506 37.8109C17.315 38.1437 16.4309 38.874 15.5 39.2218V37.4565C15.9491 37.3843 16.3841 37.2671 16.7863 37.0947C18.8759 36.1984 21.4034 36.7609 22.9297 38.4568C24.9125 40.6609 25.9325 43.5128 25.8013 46.4865C25.5453 52.2803 20.8044 56.9931 15.0106 57.2171ZM27.6725 45.9756C27.6725 44.005 27.2516 42.0915 26.4237 40.3506H53.9375V45.9756H27.6725ZM51.125 53.4756H25.3091C26.4641 51.8312 27.2534 49.9159 27.5525 47.8506H53.9375V50.6631C53.9375 52.2137 52.6756 53.4756 51.125 53.4756ZM57.6875 30.9756H53.9375V38.4756H25.3203C25.0128 38.0359 24.6875 37.6075 24.3238 37.2034C22.2359 34.8831 18.9088 34.1481 16.0494 35.3715C15.8778 35.4446 15.6894 35.4925 15.5009 35.5393V32.8506H52.0634V30.9756H15.5V30.0381C15.5 29.7128 15.5544 29.4025 15.6331 29.1006H57.6875V30.9756Z" fill="#1C1C1C"/>
<path d="M7.0625 45.9756H5.1875C5.1875 51.145 9.39313 55.3506 14.5625 55.3506V53.4756C10.4272 53.4756 7.0625 50.1109 7.0625 45.9756Z" fill="#1C1C1C"/>
<path d="M25.8125 15.9756H23.9375V17.8506H25.8125V15.9756Z" fill="#1C1C1C"/>
<path d="M25.8125 19.7256H23.9375V21.6006H25.8125V19.7256Z" fill="#1C1C1C"/>
<path d="M25.8125 23.4756H23.9375V25.3506H25.8125V23.4756Z" fill="#1C1C1C"/>
</g>
<defs>
<clipPath id="clip0">
<rect width="60" height="60" fill="white" transform="translate(0.5 0.0380859)"/>
</clipPath>
</defs>
</svg>
