<svg width="61" height="60" viewBox="0 0 61 60" fill="none" xmlns="http://www.w3.org/2000/svg">
<g clip-path="url(#clip0_414:1747)">
<path d="M50.3103 10.4794C48.426 8.59511 46.0472 7.35679 43.431 6.89812C40.8748 6.45023 38.2769 6.77238 35.9179 7.82999C35.3273 8.09484 35.0632 8.78823 35.3281 9.37874C35.5927 9.96925 36.286 10.2332 36.8768 9.96866C40.8446 8.18952 45.5772 9.06081 48.653 12.1366C50.6451 14.1287 51.7421 16.7773 51.7421 19.5943C51.7421 22.4115 50.645 25.0601 48.6529 27.0521C44.5407 31.1644 37.8496 31.1642 33.7374 27.0521C30.6652 23.9799 29.7885 19.416 31.504 15.4249C31.7596 14.8304 31.4848 14.1412 30.8902 13.8857C30.2952 13.6297 29.6063 13.9049 29.3508 14.4995C28.3439 16.8418 28.0553 19.4102 28.5162 21.9268C28.9882 24.5046 30.2206 26.85 32.0801 28.7095C34.5931 31.2225 37.8941 32.4791 41.1952 32.4791C44.4963 32.4791 47.7972 31.2226 50.3102 28.7095C52.745 26.2748 54.0858 23.0376 54.0858 19.5944C54.0858 16.1512 52.745 12.9142 50.3103 10.4794Z" fill="white"/>
<path d="M33.7889 10.4379C33.3338 9.97781 32.5919 9.97371 32.1316 10.4286L32.082 10.478C31.6236 10.9348 31.6222 11.6767 32.079 12.1352C32.308 12.365 32.6086 12.48 32.9092 12.48C33.2082 12.48 33.5074 12.3661 33.7361 12.1383L33.7796 12.0952C34.2398 11.6401 34.2439 10.8981 33.7889 10.4379Z" fill="white"/>
<path d="M41.1949 0C30.5499 0 21.8896 8.66027 21.8896 19.3052C21.8896 22.4482 22.6627 25.5687 24.1254 28.3291C24.4284 28.901 25.1375 29.119 25.7095 28.8161C26.2814 28.513 26.4993 27.8038 26.1964 27.2319C24.9123 24.8081 24.2335 22.0672 24.2335 19.3052C24.2334 9.95262 31.8423 2.34375 41.1949 2.34375C50.5475 2.34375 58.1562 9.95262 58.1562 19.3052C58.1562 23.2393 56.7788 27.0734 54.2776 30.1008C54.2409 30.1452 54.208 30.1917 54.1789 30.24L43.6462 43.7339C42.9508 43.4757 42.1993 43.3342 41.4152 43.3342H40.2549C40.2526 43.3342 40.2502 43.3342 40.2478 43.3342H38.5112L35.171 35.4661C34.3262 33.476 32.3833 32.1901 30.2213 32.1901H16.5487C14.3867 32.1901 12.444 33.476 11.5991 35.4661L8.25887 43.3342H6.92844C3.38375 43.3341 0.5 46.2179 0.5 49.7626V55.7552C0.5 56.0664 0.62375 56.3647 0.843945 56.5846C1.06367 56.8039 1.36156 56.9271 1.67188 56.9271C1.67246 56.9271 1.67316 56.9271 1.67375 56.9271L7.36402 56.9182C7.87426 58.6954 9.51336 60 11.4525 60C13.3917 60 15.0308 58.6952 15.541 56.9179H34.2777C34.788 58.6952 36.4271 60 38.3663 60C40.3052 60 41.9439 58.6958 42.4546 56.919L46.6696 56.927C46.6703 56.927 46.6712 56.927 46.6719 56.927C46.9822 56.927 47.28 56.8038 47.4997 56.5846C47.7199 56.3647 47.8438 56.0664 47.8438 55.7551V49.7625C47.8438 47.8485 47.002 46.1283 45.6704 44.9496L56.1154 31.5681C56.1382 31.5389 56.1594 31.509 56.1789 31.4782C58.9665 28.05 60.5 23.7332 60.5 19.3052C60.5 8.66027 51.8397 0 41.1949 0ZM44.8828 47.6071H42.4811L41.8728 45.7042C43.1423 45.8463 44.2372 46.5724 44.8828 47.6071ZM24.557 34.5337H30.2213C31.441 34.5337 32.537 35.2591 33.0136 36.3818L35.965 43.3341H24.557V34.5337ZM2.84375 49.7626C2.84375 49.3665 2.90152 48.984 3.00711 48.6216H4.5418C5.04863 48.6216 5.46102 49.0339 5.46102 49.5408C5.46102 50.0476 5.04863 50.46 4.5418 50.46H2.84375V49.7626ZM11.4525 57.6562C10.3991 57.6562 9.54207 56.7993 9.54207 55.746C9.54207 54.6927 10.3991 53.8357 11.4525 53.8357C12.5059 53.8357 13.3627 54.6927 13.3627 55.746C13.3627 56.7993 12.5059 57.6562 11.4525 57.6562ZM22.2132 54.574H15.5411C15.0309 52.7966 13.3918 51.4918 11.4526 51.4918C9.51324 51.4918 7.87402 52.7967 7.36391 54.5742L2.84375 54.5815V52.8036H4.5418C6.34098 52.8036 7.80477 51.3398 7.80477 49.5407C7.80477 47.8232 6.47059 46.4123 4.78449 46.2877C5.40816 45.9014 6.14258 45.6777 6.92855 45.6777H22.2132V54.574ZM22.2132 43.3341H10.805L13.7565 36.3818C14.233 35.2591 15.329 34.5337 16.5487 34.5337H22.2132V43.3341ZM38.3663 57.6562C37.3129 57.6562 36.4561 56.7993 36.4561 55.746C36.4561 54.6927 37.313 53.8357 38.3663 53.8357C39.4196 53.8357 40.2767 54.6927 40.2767 55.746C40.2767 56.7993 39.4197 57.6562 38.3663 57.6562ZM45.5 54.5809L42.4554 54.5753C41.9455 52.7972 40.306 51.4918 38.3663 51.4918C36.4271 51.4918 34.788 52.7966 34.2778 54.574H24.557V45.6777H37.7356H39.4039L40.5092 49.1357C40.6645 49.6212 41.1158 49.9507 41.6254 49.9507H45.5V54.5809Z" fill="white"/>
<path d="M42.1622 12.8105H38.7803C38.133 12.8105 37.6084 13.3351 37.6084 13.9823V17.3642V20.7463V25.5937C37.6084 26.241 38.133 26.7656 38.7803 26.7656C39.4275 26.7656 39.9521 26.241 39.9521 25.5937V21.9182H42.1622C44.6732 21.9182 46.7161 19.8752 46.7161 17.3642C46.7161 14.8533 44.6732 12.8105 42.1622 12.8105ZM42.1622 19.5744H39.9521V17.3642V15.1542H42.1622C43.3808 15.1542 44.3723 16.1456 44.3723 17.3642C44.3723 18.5829 43.3809 19.5744 42.1622 19.5744Z" fill="white"/>
<path d="M18.7588 48.362C18.1116 48.362 17.5869 48.8866 17.5869 49.5339V49.5477C17.5869 50.1949 18.1116 50.7196 18.7588 50.7196C19.406 50.7196 19.9307 50.1949 19.9307 49.5477V49.5339C19.9307 48.8866 19.406 48.362 18.7588 48.362Z" fill="white"/>
</g>
<defs>
<clipPath id="clip0_414:1747">
<rect width="60" height="60" fill="white" transform="translate(0.5)"/>
</clipPath>
</defs>
</svg>
