<svg width="61" height="61" viewBox="0 0 61 61" fill="none" xmlns="http://www.w3.org/2000/svg">
<g clip-path="url(#clip0)">
<path d="M1.67188 54.6585H11.75C12.3971 54.6585 12.9219 54.1339 12.9219 53.4866V52.3414C16.7102 52.5146 19.2195 53.5179 21.8616 54.5747C24.8454 55.7683 27.9305 57.0023 32.8438 57.0023C35.002 57.0023 38.2052 56.2765 42.3646 54.8452C42.9767 54.6346 43.302 53.9678 43.0914 53.3559C42.8807 52.7438 42.2137 52.4184 41.602 52.6291C37.6885 53.9757 34.7418 54.6585 32.8438 54.6585C28.382 54.6585 25.6377 53.5608 22.7321 52.3986C19.9931 51.303 17.1675 50.1739 12.9219 49.996V38.0896C13.673 37.8951 14.4298 37.5508 15.2152 37.1923C17.5252 36.1381 20.1434 34.9429 23.7321 36.9614L29.3892 40.144C29.9141 40.4397 30.5105 40.596 31.1141 40.596H38.7031C39.9955 40.596 41.0469 41.6474 41.0469 42.9398C41.0469 43.8995 40.4463 44.7773 39.5485 45.1251C39.2802 45.2302 38.9957 45.2835 38.7031 45.2835H26.7898C26.1427 45.2835 25.618 45.8082 25.618 46.4554C25.618 47.1026 26.1427 47.6273 26.7898 47.6273H38.7031C39.273 47.6273 39.8292 47.5247 40.3538 47.3256C40.3632 47.3225 40.3727 47.3202 40.3821 47.3167C40.3821 47.3167 54.9582 41.9286 54.9643 41.9261C55.2346 41.8211 55.52 41.7678 55.8125 41.7678C57.1048 41.7678 58.1562 42.8192 58.1562 44.1115C58.1562 45.0132 57.6295 45.8454 56.8169 46.2305C56.6164 46.3272 56.4155 46.4246 56.0278 46.6093L55.6888 45.9312C55.3993 45.3523 54.6949 45.1177 54.1166 45.4071C53.5377 45.6966 53.303 46.4005 53.5924 46.9794L53.9036 47.6021C53.1365 47.9541 52.2645 48.3477 51.3111 48.7673C50.7187 49.028 50.4498 49.7195 50.7106 50.3119C50.9717 50.9052 51.6637 51.1727 52.2553 50.9125C54.5606 49.8979 56.0861 49.1782 57.8178 48.35C59.4472 47.5778 60.5 45.9142 60.5 44.1116C60.5 41.527 58.3972 39.4241 55.8125 39.4241C55.232 39.4241 54.6643 39.5296 54.1251 39.7379L43.3212 43.7315C43.3664 43.4724 43.3906 43.2078 43.3906 42.9398C43.3906 40.3551 41.2878 38.2523 38.7031 38.2523H31.1141C30.9127 38.2523 30.7141 38.2004 30.539 38.1017L24.8812 34.9188C20.2542 32.3163 16.7793 33.9023 14.2422 35.0601C13.2447 35.5154 12.3834 35.9085 11.75 35.9085H1.67188C1.02477 35.9085 0.5 36.4332 0.5 37.0804V53.4866C0.5 54.1339 1.02477 54.6585 1.67188 54.6585ZM2.84375 38.2523H10.5781V52.3148H2.84375V38.2523Z" fill="#1C1C1C"/>
<path d="M39.2459 33.3719C39.4415 33.5004 39.6657 33.5647 39.8901 33.5647C40.1144 33.5647 40.3388 33.5004 40.5342 33.3719C57.724 22.062 58.2904 13.6935 57.0979 9.71182C55.7929 5.35385 51.579 3.07373 48.0909 3.07373C43.9707 3.07373 41.2476 5.42838 39.8902 6.99787C38.5329 5.42838 35.8101 3.07373 31.6906 3.07373C28.2064 3.07373 23.9951 5.35772 22.6878 9.72318C21.496 13.7022 22.0626 22.0656 39.2459 33.3719ZM24.9329 10.3956C25.9012 7.16229 29.1373 5.4176 31.6905 5.4176C36.3643 5.4176 38.774 9.37174 38.8802 9.54998C39.0908 9.90775 39.4749 10.1274 39.8901 10.1274C40.3065 10.1274 40.6914 9.90646 40.9017 9.54717C40.9258 9.5058 43.3718 5.4176 48.0909 5.4176C50.6478 5.4176 53.8866 7.1583 54.8527 10.3842C55.6515 13.0517 55.7587 20.352 39.8901 30.9864C24.0279 20.3557 24.1347 13.0609 24.9329 10.3956Z" fill="#1C1C1C"/>
<path d="M35.1875 19.5022H38.7031V23.0178C38.7031 23.665 39.2279 24.1897 39.875 24.1897C40.5221 24.1897 41.0469 23.665 41.0469 23.0178V19.5022H44.5625C45.2096 19.5022 45.7344 18.9775 45.7344 18.3303C45.7344 17.6831 45.2096 17.1584 44.5625 17.1584H41.0469V13.6428C41.0469 12.9956 40.5221 12.4709 39.875 12.4709C39.2279 12.4709 38.7031 12.9956 38.7031 13.6428V17.1584H35.1875C34.5404 17.1584 34.0156 17.6831 34.0156 18.3303C34.0156 18.9775 34.5404 19.5022 35.1875 19.5022Z" fill="#1C1C1C"/>
<path d="M46.9062 53.0178C47.5535 53.0178 48.0781 52.4932 48.0781 51.8459C48.0781 51.1987 47.5535 50.6741 46.9062 50.6741C46.259 50.6741 45.7344 51.1987 45.7344 51.8459C45.7344 52.4932 46.259 53.0178 46.9062 53.0178Z" fill="#1C1C1C"/>
</g>
<defs>
<clipPath id="clip0">
<rect width="60" height="60" fill="white" transform="translate(0.5 0.0380859)"/>
</clipPath>
</defs>
</svg>
