<svg width="61" height="60" viewBox="0 0 61 60" fill="none" xmlns="http://www.w3.org/2000/svg">
<g clip-path="url(#clip0_414:1697)">
<path d="M34.5146 37.978C34.5146 43.4971 38.9888 47.9713 44.508 47.9713C50.0267 47.9713 54.5009 43.4971 54.5009 37.978C54.5009 32.4593 50.0267 27.9851 44.508 27.9851C38.9912 27.9912 34.5207 32.4617 34.5146 37.978ZM44.508 29.9835C48.9233 29.9835 52.5024 33.5627 52.5024 37.978C52.5024 42.3933 48.9233 45.9725 44.508 45.9725C40.0926 45.9725 36.5135 42.3933 36.5135 37.978C36.5183 33.5651 40.0947 29.9884 44.508 29.9835Z" fill="white"/>
<path d="M38.7979 57.9646H50.2191V59.963H38.7979V57.9646Z" fill="white"/>
<path d="M34.5146 53.967H54.5013V55.9658H34.5146V53.967Z" fill="white"/>
<path d="M12.5293 53.967H14.5281V55.9658H12.5293V53.967Z" fill="white"/>
<path d="M6.53418 55.9658H8.53259V57.9646H6.53418V55.9658Z" fill="white"/>
<path d="M12.6298 48.3438C17.8478 39.256 21.1218 29.1832 22.2442 18.7642L31.538 28.0028C31.7239 28.1879 31.975 28.2923 32.2375 28.2935C32.2915 28.2939 32.3459 28.2895 32.3991 28.2806C32.716 28.229 32.9885 28.0282 33.1317 27.7412C35.0156 23.981 34.2778 19.4367 31.3009 16.4659L30.4838 15.6483H37.5127C38.0646 15.6487 38.5125 15.2016 38.5125 14.6497C38.5129 14.5416 38.4952 14.4344 38.4613 14.3324C37.1341 10.3412 33.3993 7.64976 29.1933 7.6538H27.8943L32.8849 2.63417C33.2744 2.24311 33.2728 1.61057 32.8817 1.22112C32.8059 1.14574 32.7188 1.08284 32.6233 1.03527C28.8615 -0.850666 24.3147 -0.113304 21.3419 2.86517L20.3876 3.81943C20.0764 4.13268 19.7874 4.46649 19.5213 4.81884C19.2584 4.46649 18.9714 4.13268 18.6626 3.81943L17.7083 2.86517C14.7379 -0.111288 10.1936 -0.848651 6.4342 1.03527C5.94034 1.282 5.73997 1.88229 5.9867 2.37575C6.03427 2.47129 6.09716 2.55837 6.17255 2.63417L11.1688 7.6538H9.85695C5.65088 7.64976 1.91568 10.3412 0.588913 14.3324C0.413946 14.8557 0.696554 15.4217 1.22025 15.5967C1.32224 15.6309 1.42948 15.6483 1.53753 15.6483H8.55961L7.74242 16.4659C4.76556 19.4367 4.02779 23.981 5.91131 27.7412C6.05483 28.0282 6.32736 28.229 6.64384 28.2806C6.69745 28.2895 6.75148 28.2939 6.8059 28.2935C7.06997 28.2935 7.32314 28.1891 7.51021 28.0028L16.1646 19.3996C15.0931 28.9756 11.4865 38.0925 5.71659 45.8096C4.37329 45.4568 3.01145 45.1791 1.63751 44.9783L1.01303 44.9154L0.813065 46.9049L1.39562 46.9618C2.39503 47.1049 3.38799 47.3069 4.37571 47.5355C4.17575 47.7862 3.97578 48.041 3.76897 48.2882L5.30175 49.5702C12.9814 40.4396 17.5595 29.1042 18.3751 17.2012L19.5253 16.0583L20.3864 16.9146C19.3358 29.644 14.9665 41.876 7.7142 52.3902L9.35099 53.5356C10.1367 52.414 10.8862 51.2501 11.6127 50.064C16.2872 52.2999 20.4147 55.5336 23.7044 59.5373L25.2501 58.271C23.3048 55.9061 21.0762 53.7891 18.6138 51.9685H60.4971V49.9697H15.653C14.6734 49.3783 13.6623 48.8425 12.6298 48.3438ZM31.8706 25.5134L21.3121 15.0157C24.0128 14.2094 26.938 14.9411 28.9409 16.9242L29.8952 17.8789C31.8944 19.8745 32.6507 22.7985 31.8706 25.5134ZM35.988 13.6499H27.7137C25.7866 12.7327 23.6125 12.4731 21.5237 12.9113C22.9779 10.8665 25.3315 9.65221 27.8407 9.65262H29.1896C32.0145 9.64818 34.6185 11.1793 35.988 13.6499ZM21.7975 5.23247L22.7521 4.27822C24.7493 2.27859 27.6746 1.52187 30.3906 2.30237L24.4667 8.26134C22.5441 8.96887 20.8936 10.2646 19.7491 11.9639C19.2842 9.51917 20.051 7.0019 21.8007 5.23247H21.7975ZM16.2924 4.27822L17.2467 5.23247C17.6918 5.68682 18.078 6.1956 18.3961 6.7463C17.9433 7.79893 17.6849 8.92412 17.6325 10.0683C16.7355 9.28454 15.7022 8.67256 14.5847 8.26134L8.65959 2.30237C11.3748 1.52228 14.2993 2.27899 16.2953 4.27822H16.2924ZM9.85372 9.65262H11.2031C13.7139 9.6502 16.0707 10.8641 17.5265 12.9101C15.439 12.4735 13.2656 12.7331 11.3397 13.6499H3.06224C4.43134 11.1806 7.03328 9.64979 9.85695 9.65262H9.85372ZM7.17962 25.5134C6.39953 22.7985 7.15624 19.8745 9.15547 17.8789L10.1097 16.9242C11.5474 15.4902 13.497 14.6876 15.5281 14.694C16.2775 14.6944 17.023 14.8013 17.7426 15.0117L7.17962 25.5134Z" fill="white"/>
</g>
<defs>
<clipPath id="clip0_414:1697">
<rect width="60" height="60" fill="white" transform="translate(0.5)"/>
</clipPath>
</defs>
</svg>
