<svg width="61" height="60" viewBox="0 0 61 60" fill="none" xmlns="http://www.w3.org/2000/svg">
<g clip-path="url(#clip0_414:1821)">
<path d="M51.0639 34.6519H48.9766V31.9704C48.9766 31.485 48.5831 31.0915 48.0977 31.0915H31.7798C34.5999 28.1932 36.3594 24.4703 36.7958 20.3986C36.9382 19.1116 36.9383 17.7519 36.796 16.4662C36.3561 12.3629 34.5006 8.49 31.5711 5.56067C28.6419 2.63157 24.7691 0.776136 20.6688 0.336566C19.3812 0.194417 18.0187 0.194769 16.7364 0.336331C12.6334 0.776136 8.76058 2.63157 5.83136 5.56067C2.9019 8.49 1.04636 12.3629 0.606904 16.4636C0.464404 17.7505 0.464404 19.1101 0.60667 20.396C1.04647 24.4987 2.90214 28.3717 5.83147 31.301C8.76093 34.2303 12.6337 36.086 16.7339 36.5256C18.0027 36.6664 19.3986 36.6664 20.6661 36.5258C21.7002 36.4152 22.7229 36.2137 23.7205 35.9282V50.9976C23.7205 55.8346 27.6557 59.7696 32.4924 59.7696H40.2047C44.1632 59.7696 47.5161 57.1333 48.604 53.5247H51.0639C52.3987 53.5247 53.6905 53.2498 54.9032 52.7075C55.3462 52.5094 55.5449 51.9895 55.3467 51.5464C55.1487 51.1033 54.6287 50.9046 54.1856 51.1029C53.2002 51.5435 52.1498 51.767 51.0639 51.767H48.9409C48.963 51.5133 48.9766 51.257 48.9766 50.9976V48.7295H51.0639C53.6226 48.7295 55.7045 46.6476 55.7045 44.0889C55.7045 41.5294 53.6226 39.4471 51.0639 39.4471H48.9766V36.4096H51.0639C55.2976 36.4096 58.742 39.8544 58.742 44.0889C58.742 46.001 58.0312 47.8352 56.7408 49.2537C56.4141 49.6127 56.4403 50.1685 56.7994 50.4953C56.9679 50.6485 57.1795 50.7241 57.3906 50.7241C57.6294 50.7241 57.8675 50.6273 58.0408 50.4367C59.6265 48.6939 60.4997 46.4395 60.4997 44.089C60.4998 38.8854 56.2669 34.6519 51.0639 34.6519ZM20.4762 34.7783C19.3294 34.9048 18.0757 34.905 16.9239 34.7781C13.2189 34.3808 9.72093 32.7046 7.07437 30.058C4.4278 27.4114 2.75155 23.9135 2.35405 20.2059C2.2255 19.0427 2.2255 17.818 2.35429 16.6535C2.75155 12.948 4.42769 9.45 7.07425 6.80367C9.72069 4.15746 13.2186 2.48133 16.9264 2.08383C18.0866 1.95586 19.3132 1.95551 20.4787 2.08418C24.1839 2.48145 27.6818 4.15746 30.3282 6.80367C32.9747 9.45 34.6509 12.9482 35.0485 16.6562C35.1771 17.8194 35.177 19.0441 35.0482 20.2086C34.5895 24.4894 32.5124 28.3419 29.1902 31.0915H24.5993C24.1139 31.0915 23.7204 31.485 23.7204 31.9704V34.0919C22.668 34.4289 21.5803 34.6602 20.4762 34.7783ZM47.2188 50.9978C47.2188 54.8654 44.0722 58.0119 40.2047 58.0119H32.4924C28.6248 58.0119 25.4783 54.8653 25.4783 50.9978V32.8493H47.2189V50.9978H47.2188ZM51.0639 41.205C52.6534 41.205 53.9467 42.4987 53.9467 44.089C53.9467 45.6785 52.6534 46.9718 51.0639 46.9718H48.9766V41.205H51.0639Z" fill="white"/>
<path d="M28.2955 19.3097C28.7809 19.3097 29.1744 18.9162 29.1744 18.4308C29.1744 17.9454 28.7809 17.5519 28.2955 17.5519H26.6484C26.163 17.5519 25.7695 17.9454 25.7695 18.4308C25.7695 18.9162 26.163 19.3097 26.6484 19.3097H28.2955Z" fill="white"/>
<path d="M11.6333 18.4308C11.6333 17.9454 11.2398 17.5519 10.7544 17.5519H9.10742C8.62203 17.5519 8.22852 17.9454 8.22852 18.4308C8.22852 18.9162 8.62203 19.3097 9.10742 19.3097H10.7544C11.2398 19.3097 11.6333 18.9162 11.6333 18.4308Z" fill="white"/>
<path d="M19.5801 10.4837V8.83675C19.5801 8.35136 19.1866 7.95785 18.7012 7.95785C18.2158 7.95785 17.8223 8.35136 17.8223 8.83675V10.4837C17.8223 10.9691 18.2158 11.3626 18.7012 11.3626C19.1866 11.3626 19.5801 10.9691 19.5801 10.4837Z" fill="white"/>
<path d="M17.8223 26.3777V28.0248C17.8223 28.5102 18.2158 28.9037 18.7012 28.9037C19.1866 28.9037 19.5801 28.5102 19.5801 28.0248V26.3777C19.5801 25.8923 19.1866 25.4988 18.7012 25.4988C18.2158 25.4988 17.8223 25.8923 17.8223 26.3777Z" fill="white"/>
<path d="M14.7093 13.1959C14.3661 12.8527 13.8095 12.8527 13.4664 13.1959C13.1232 13.5392 13.1232 14.0957 13.4664 14.4388L16.39 17.3624C16.2368 17.6933 16.1534 18.0552 16.1534 18.4307C16.1534 19.1112 16.4185 19.751 16.8997 20.2322C17.3808 20.7134 18.0207 20.9785 18.7012 20.9785C19.3818 20.9785 20.0215 20.7134 20.5027 20.2322C20.9839 19.751 21.249 19.1112 21.249 18.4307C21.249 18.0552 21.1656 17.6933 21.0125 17.3625L22.0515 16.3235C22.3947 15.9803 22.3947 15.4238 22.0515 15.0806C21.7082 14.7374 21.1517 14.7374 20.8086 15.0806L19.7696 16.1196C19.4386 15.9665 19.0768 15.883 18.7013 15.883C18.3258 15.883 17.964 15.9663 17.6331 16.1195L14.7093 13.1959ZM19.2597 17.8722C19.409 18.0213 19.4911 18.2197 19.4911 18.4307C19.4911 18.6416 19.409 18.84 19.2597 18.9893C19.1105 19.1385 18.9122 19.2208 18.7012 19.2208C18.4902 19.2208 18.2918 19.1386 18.1427 18.9893C17.9935 18.8401 17.9112 18.6417 17.9112 18.4307C17.9112 18.2196 17.9934 18.0213 18.1427 17.8722C18.2918 17.723 18.4901 17.6408 18.7012 17.6408C18.9122 17.6408 19.1105 17.723 19.2597 17.8722Z" fill="white"/>
<path d="M32.0088 19.8765C32.1124 18.9213 32.1124 17.9406 32.0088 16.9857C31.6848 13.9683 30.32 11.1203 28.166 8.96614C26.012 6.81199 23.1638 5.44723 20.1472 5.12332C19.1934 5.02008 18.2087 5.02008 17.2564 5.12332C14.2391 5.44735 11.3909 6.81211 9.23692 8.96625C7.08289 11.1204 5.71801 13.9684 5.3941 16.985C5.29051 17.9402 5.29051 18.921 5.3941 19.8757C5.60738 21.8645 6.24734 23.736 7.29629 25.438C7.5507 25.8512 8.09235 25.9799 8.50555 25.7251C8.91875 25.4705 9.04742 24.9291 8.79266 24.5159C7.88234 23.0387 7.32699 21.4145 7.14172 19.6874C7.05172 18.8566 7.05172 18.0046 7.14172 17.1735C7.42297 14.5538 8.60856 12.0805 10.4798 10.2091C12.3511 8.33778 14.8244 7.15242 17.4448 6.87106C18.2735 6.78129 19.1288 6.78129 19.9588 6.87106C22.5785 7.15231 25.0517 8.33789 26.9231 10.2091C28.7945 12.0804 29.9798 14.5538 30.2612 17.1742C30.3512 18.005 30.3512 18.857 30.2612 19.6881C29.9799 22.3078 28.7943 24.7811 26.9231 26.6524C25.0518 28.5238 22.5785 29.7091 19.9581 29.9905C19.1297 30.0803 18.2743 30.0804 17.4441 29.9905C14.9857 29.7266 12.7154 28.7034 10.8791 27.0316C10.5202 26.7049 9.96418 26.7309 9.63746 27.0899C9.31063 27.4488 9.33676 28.0048 9.69571 28.3315C11.8099 30.2562 14.4243 31.4343 17.2557 31.7381C18.2109 31.8417 19.1916 31.8417 20.1465 31.7381C23.164 31.4141 26.012 30.0493 28.1661 27.8953C30.3202 25.7413 31.6849 22.8932 32.0088 19.8765Z" fill="white"/>
<path d="M42.9266 13.768C44.131 13.768 45.1108 14.7478 45.1108 15.9523C45.1108 17.1567 44.131 18.1366 42.9266 18.1366C42.4412 18.1366 42.0477 18.5302 42.0477 19.0155C42.0477 19.5009 42.4412 19.8945 42.9266 19.8945C45.1003 19.8945 46.8686 18.126 46.8686 15.9523C46.8686 13.7786 45.1003 12.0102 42.9266 12.0102C41.7221 12.0102 40.7422 11.0303 40.7422 9.82582C40.7422 8.62137 41.7221 7.64156 42.9266 7.64156C43.412 7.64156 43.8055 7.24805 43.8055 6.76266C43.8055 6.27727 43.412 5.88375 42.9266 5.88375C40.7529 5.88375 38.9844 7.65211 38.9844 9.82582C38.9844 11.9995 40.7529 13.768 42.9266 13.768Z" fill="white"/>
<path d="M42.0544 23.2921C43.2588 23.2921 44.2388 24.2719 44.2388 25.4763C44.2388 26.6808 43.2588 27.6607 42.0544 27.6607C41.569 27.6607 41.1755 28.0542 41.1755 28.5396C41.1755 29.025 41.569 29.4185 42.0544 29.4185C44.2281 29.4185 45.9966 27.65 45.9966 25.4763C45.9966 23.3026 44.2281 21.5343 42.0544 21.5343C40.8499 21.5343 39.8701 20.5545 39.8701 19.35C39.8701 18.1456 40.8499 17.1656 42.0544 17.1656C42.5398 17.1656 42.9333 16.7721 42.9333 16.2867C42.9333 15.8013 42.5398 15.4078 42.0544 15.4078C39.8807 15.4078 38.1123 17.1763 38.1123 19.35C38.1123 21.5237 39.8807 23.2921 42.0544 23.2921Z" fill="white"/>
</g>
<defs>
<clipPath id="clip0_414:1821">
<rect width="60" height="60" fill="white" transform="translate(0.5)"/>
</clipPath>
</defs>
</svg>
