<svg width="61" height="60" viewBox="0 0 61 60" fill="none" xmlns="http://www.w3.org/2000/svg">
<g clip-path="url(#clip0_414:1778)">
<path d="M13.3713 58.1494L11.607 55.6643C11.2325 55.1365 10.5009 55.0124 9.97309 55.3871C9.4454 55.7617 9.32118 56.4932 9.69595 57.021L11.4602 59.5062C11.6887 59.8281 12.0499 59.9998 12.4168 59.9998C12.6514 59.9998 12.8882 59.9295 13.0941 59.7833C13.6218 59.4087 13.746 58.6772 13.3713 58.1494Z" fill="white"/>
<path d="M26.8911 58.5872L24.9711 49.4363C24.0375 44.9865 21.4453 41.1388 17.6724 38.6018L13.573 35.8453C11.9293 34.7402 9.71981 34.9779 8.34591 36.3788V22.2583C8.34591 20.4049 7.08228 18.8301 5.27291 18.4285C4.10514 18.169 2.90069 18.4501 1.96777 19.1985C1.03496 19.947 0.5 21.0623 0.5 22.2583V40.4284C0.5 42.8088 1.22843 45.0931 2.60644 47.0343L4.69623 49.9782C4.92475 50.3001 5.28592 50.4718 5.65283 50.4718C5.88744 50.4718 6.12427 50.4014 6.33017 50.2553C6.85787 49.8807 6.98208 49.1492 6.60732 48.6214L4.51752 45.6775C3.42253 44.135 2.84374 42.3199 2.84374 40.4282V22.2583C2.84374 21.7769 3.05913 21.3279 3.4346 21.0265C3.80995 20.7252 4.29475 20.6122 4.76514 20.7166C5.49346 20.8782 6.00217 21.5122 6.00217 22.2583V36.6742C6.00217 38.7149 6.75193 40.6591 8.11399 42.1718C8.17235 42.2417 8.23235 42.311 8.29575 42.3781C9.07399 43.2028 9.98899 44.1745 10.8508 45.0904L12.0572 46.3744C12.0611 46.3785 12.0653 46.3821 12.0693 46.386C13.1014 47.4837 13.8625 48.2943 13.8784 48.3112C14.3213 48.7829 15.0631 48.8063 15.5349 48.3632C16.0067 47.9201 16.03 47.1786 15.5868 46.7068C15.5654 46.684 14.1937 45.2233 12.6271 43.5582L9.94012 40.6985C9.93332 40.6912 9.92711 40.6836 9.92031 40.6763C9.29032 39.9228 9.29817 38.8303 9.95852 38.0847C10.5427 37.4254 11.5346 37.2989 12.2655 37.7903L16.3645 40.5467C19.628 42.7411 21.8699 46.0689 22.6773 49.9176L24.5974 59.0686C24.7133 59.6209 25.2004 60 25.7431 60C25.8228 60 25.9038 59.9918 25.9849 59.9748C26.6183 59.8419 27.024 59.2206 26.8911 58.5872Z" fill="white"/>
<path d="M9.18221 52.2488L9.17471 52.2382C8.79854 51.7114 8.06682 51.589 7.54007 51.965C7.01331 52.3409 6.89097 53.0727 7.26679 53.5995L7.27429 53.61C7.50304 53.9305 7.86339 54.1014 8.22925 54.1014C8.46479 54.1014 8.70256 54.0306 8.90893 53.8833C9.43557 53.5074 9.55803 52.7755 9.18221 52.2488Z" fill="white"/>
<path d="M59.0316 19.1986C58.0987 18.4502 56.8937 18.1696 55.7265 18.4286C53.9172 18.8301 52.6534 20.405 52.6534 22.2584V36.379C51.2796 34.978 49.07 34.7403 47.4263 35.8454L43.327 38.6018C39.5539 41.1386 36.9618 44.9865 36.0282 49.4363L34.1082 58.5873C33.9753 59.2207 34.381 59.8419 35.0144 59.9748C35.0955 59.9918 35.1766 60 35.2562 60C35.799 60 36.286 59.6208 36.4019 59.0685L38.3219 49.9175C39.1294 46.0689 41.3712 42.7409 44.6347 40.5467L48.734 37.7904C49.4646 37.2989 50.4565 37.4254 51.0409 38.0847C51.7005 38.8293 51.7092 39.9201 51.0816 40.6736C51.0741 40.6818 51.0669 40.6903 51.0594 40.6985C51.0594 40.6985 45.4339 46.6843 45.4127 46.7068C44.9696 47.1786 44.9929 47.9201 45.4646 48.3632C45.9364 48.8063 46.6779 48.783 47.121 48.3112C47.137 48.2943 51.9255 43.2029 52.7037 42.3782C52.7671 42.3111 52.8271 42.2418 52.8855 42.1719C54.2474 40.6592 54.9973 38.715 54.9973 36.6743V22.2583C54.9973 21.5121 55.506 20.8782 56.2344 20.7166C56.7047 20.6123 57.1894 20.7254 57.565 21.0265C57.9404 21.3278 58.1558 21.7768 58.1558 22.2583V40.4284C58.1558 42.32 57.577 44.1351 56.482 45.6776L47.6284 58.1495C47.2538 58.6772 47.3779 59.4088 47.9056 59.7834C48.1116 59.9296 48.3483 59.9999 48.5829 59.9999C48.9497 59.9999 49.311 59.8281 49.5395 59.5063L58.3931 47.0344C59.7711 45.0932 60.4996 42.8089 60.4996 40.4285V22.2583C60.4992 21.0623 59.9644 19.9471 59.0316 19.1986Z" fill="white"/>
<path d="M45.3428 22.4601L43.2579 21.962V21.5882C44.613 20.639 45.5015 19.0671 45.5015 17.2908V14.5804C45.5015 11.6883 43.1487 9.33558 40.2566 9.33558C38.9588 9.33558 37.7705 9.81042 36.8538 10.5942C35.8331 8.09457 33.3771 6.32809 30.5149 6.32809C27.6492 6.32809 25.1906 8.09914 24.1723 10.6035C23.2541 9.81417 22.0615 9.33535 20.7584 9.33535C17.8663 9.33535 15.5135 11.6881 15.5135 14.5802V14.7603V17.2906C15.5135 19.0669 16.4021 20.6387 17.7571 21.588V21.9618L15.6722 22.4598C13.1829 23.0546 11.4443 25.2573 11.4443 27.8167V30.0053C11.4443 30.6525 11.9691 31.1771 12.6162 31.1771H18.0012C17.9929 31.3193 17.9871 31.4621 17.9871 31.6062V35.82C17.9871 36.4672 18.5119 36.9918 19.159 36.9918H26.2031C26.8502 36.9918 27.375 36.4672 27.375 35.82C27.375 35.1727 26.8502 34.6481 26.2031 34.6481H24.9923V32.2264C24.9923 31.5792 24.4676 31.0546 23.8205 31.0546C23.1734 31.0546 22.6486 31.5792 22.6486 32.2264V34.6483H20.331V31.6064C20.331 29.3462 21.8661 27.3998 24.0639 26.8732L27.2797 26.1026L29.4318 30.9989C29.6189 31.4244 30.0398 31.6992 30.5045 31.6992H30.5046C30.9693 31.6992 31.3903 31.4245 31.5773 30.999L33.7272 26.11L36.9329 26.8758C39.1327 27.4014 40.6691 29.348 40.6691 31.6098V34.6483H38.3515V32.2264C38.3515 31.5792 37.8268 31.0546 37.1797 31.0546C36.5326 31.0546 36.0078 31.5792 36.0078 32.2264V34.6483H34.6797C34.0326 34.6483 33.5078 35.173 33.5078 35.8202C33.5078 36.4674 34.0326 36.9921 34.6797 36.9921H41.8411C42.4882 36.9921 43.013 36.4674 43.013 35.8202V31.6098C43.013 31.4646 43.0071 31.3207 42.9987 31.1774H48.3989C49.046 31.1774 49.5708 30.6527 49.5708 30.0055V27.8169C49.5708 25.2576 47.8322 23.0547 45.3428 22.4601ZM40.2566 11.6791C41.792 11.6791 43.0525 12.878 43.1514 14.3888H41.5221C40.1525 14.3888 38.8046 14.059 37.593 13.4312C38.0386 12.4013 39.065 11.6791 40.2566 11.6791ZM37.3556 17.1195C37.357 17.0624 37.3599 17.0056 37.3599 16.9482V15.9045C38.6749 16.4487 40.0889 16.7325 41.5221 16.7325H43.1577V17.2907C43.1577 18.8903 41.8564 20.1918 40.2566 20.1918C38.6569 20.1918 37.3556 18.8903 37.3556 17.2906V17.1195ZM26.0137 13.173C26.0137 10.6911 28.0329 8.67184 30.5149 8.67184C32.7535 8.67184 34.6155 10.3146 34.9593 12.4577L32.9865 11.2986C32.493 11.0087 31.8623 11.1175 31.4947 11.5564C30.5306 12.7069 29.1167 13.3668 27.6156 13.3668H26.0137V13.173ZM20.7585 11.6791C21.9502 11.6791 22.9764 12.4014 23.4221 13.431C22.2104 14.0589 20.8627 14.3887 19.493 14.3887H17.8637C17.9626 12.878 19.2232 11.6791 20.7585 11.6791ZM17.8574 16.7324H19.493C20.9277 16.7324 22.3433 16.448 23.6596 15.9026V17.2905C23.6596 18.8901 22.3582 20.1916 20.7585 20.1916C19.1588 20.1916 17.8574 18.8903 17.8574 17.2906V16.7324ZM23.5178 24.5939C21.2122 25.1463 19.4003 26.7538 18.5379 28.8335H13.7881V27.8168C13.7881 26.3466 14.7867 25.0811 16.2168 24.7395L19.2013 24.0265C19.7288 23.9005 20.1009 23.4291 20.1009 22.8867V22.4928C20.3166 22.5198 20.5357 22.5354 20.7585 22.5354C20.9796 22.5354 21.1972 22.5201 21.4112 22.4933V22.8277C21.4104 22.8451 21.41 22.8626 21.4099 22.8801C21.4097 23.2646 21.5987 23.6412 21.9458 23.8657C22.0766 23.9504 22.2179 24.0055 22.3622 24.0331L24.1103 24.4519L23.5178 24.5939ZM26.7866 22.7747C26.4855 22.6419 26.1717 22.5358 25.8483 22.4583L23.7548 21.9566V21.5915C24.1326 21.3274 24.4742 21.0154 24.7705 20.6636C25.2939 21.4698 25.9815 22.1592 26.7866 22.6844V22.7747ZM31.8762 24.4965L30.5049 27.6155L29.1304 24.4886V23.6523C29.5777 23.7445 30.0407 23.7932 30.5149 23.7932C30.9809 23.7932 31.4361 23.746 31.8762 23.6568V24.4965ZM30.5149 21.4493C28.0329 21.4494 26.0137 19.4302 26.0137 16.9482V15.7104H27.6156C29.4739 15.7104 31.2409 15.0194 32.5951 13.7868L35.0117 15.2067V17.1196C34.9212 19.5223 32.9395 21.4493 30.5149 21.4493ZM34.22 22.7785V22.6991C35.0316 22.1744 35.7254 21.4832 36.2528 20.6734C36.5471 21.0212 36.8858 21.3299 37.2599 21.5915V21.9566L35.1664 22.4583C34.8401 22.5366 34.5236 22.644 34.22 22.7785ZM47.2269 28.8335H42.4609C41.5977 26.7538 39.7845 25.1473 37.4776 24.5961L36.8892 24.4556L38.6466 24.0345C38.7929 24.0073 38.9365 23.9515 39.0691 23.8657C39.4156 23.6415 39.604 23.2649 39.604 22.8804C39.604 22.8713 39.6039 22.862 39.6037 22.8529V22.4933C39.8178 22.5201 40.0353 22.5354 40.2564 22.5354C40.4792 22.5354 40.6983 22.5198 40.9139 22.4928V22.8867C40.9139 23.4291 41.2861 23.9005 41.8136 24.0265L44.7981 24.7395C46.2281 25.0812 47.2269 26.3466 47.2269 27.8168V28.8335Z" fill="white"/>
<path d="M31.3284 34.9909C31.1094 34.7729 30.8082 34.6487 30.5 34.6487C30.1905 34.6487 29.8895 34.7729 29.6715 34.9909C29.4523 35.21 29.3281 35.5112 29.3281 35.8206C29.3281 36.1288 29.4523 36.4299 29.6715 36.6491C29.8895 36.867 30.1906 36.9924 30.5 36.9924C30.8082 36.9924 31.1094 36.867 31.3284 36.6491C31.5464 36.4299 31.6719 36.1288 31.6719 35.8206C31.6719 35.5112 31.5465 35.21 31.3284 34.9909Z" fill="white"/>
<path d="M30.499 0C29.8519 0 29.3271 0.524646 29.3271 1.17187V2.92534C29.3271 3.57256 29.8519 4.09721 30.499 4.09721C31.1461 4.09721 31.6709 3.57256 31.6709 2.92534V1.17187C31.6709 0.524646 31.1463 0 30.499 0Z" fill="white"/>
<path d="M26.1825 3.82255L24.9532 2.59443C24.4954 2.13693 23.7535 2.13728 23.296 2.59513C22.8385 3.05298 22.8389 3.79501 23.2968 4.25239L24.5262 5.48051C24.755 5.70915 25.0547 5.8234 25.3544 5.8234C25.6545 5.8234 25.9545 5.70879 26.1833 5.47981C26.6406 5.02196 26.6404 4.27993 26.1825 3.82255Z" fill="white"/>
<path d="M37.674 2.6244C37.2161 2.16702 36.474 2.16725 36.0167 2.62522L34.7969 3.84619C34.3395 4.30404 34.3399 5.04607 34.7977 5.50345C35.0266 5.73209 35.3262 5.84634 35.626 5.84634C35.9261 5.84634 36.2262 5.73173 36.455 5.50263L37.6748 4.28166C38.1322 3.82381 38.1318 3.08178 37.674 2.6244Z" fill="white"/>
</g>
<defs>
<clipPath id="clip0_414:1778">
<rect width="60" height="60" fill="white" transform="translate(0.5)"/>
</clipPath>
</defs>
</svg>
