<svg width="61" height="61" viewBox="0 0 61 61" fill="none" xmlns="http://www.w3.org/2000/svg">
<g clip-path="url(#clip0)">
<path d="M31.4676 23.127C33.1323 22.6941 34.3708 21.1924 34.3708 19.3935C34.3708 17.2587 32.6347 15.5226 30.4998 15.5226C29.4324 15.5226 28.5644 14.6546 28.5644 13.5871C28.5644 12.5197 29.4324 11.6517 30.4998 11.6517C31.5673 11.6517 32.4353 12.5197 32.4353 13.5871H34.3708C34.3708 11.7878 33.1323 10.2861 31.4676 9.85373V7.78076H29.5321V9.85373C27.8679 10.2861 26.6289 11.7878 26.6289 13.5871C26.6289 15.722 28.365 17.4581 30.4998 17.4581C31.5673 17.4581 32.4353 18.3261 32.4353 19.3935C32.4353 20.461 31.5673 21.329 30.4998 21.329C29.4324 21.329 28.5644 20.461 28.5644 19.3935H26.6289C26.6289 21.1924 27.8679 22.6941 29.5321 23.127V25.1999H31.4676V23.127Z" fill="#1C1C1C"/>
<path d="M45.0153 40.6836H42.1121V35.8449C42.1121 35.3096 41.6788 34.8772 41.1444 34.8772H15.9834C15.4494 34.8772 15.0156 35.3096 15.0156 35.8449V41.6513C15.0156 42.1862 15.4494 42.619 15.9834 42.619H18.8866V46.49H15.9834C15.4494 46.49 15.0156 46.9223 15.0156 47.4577V53.2641C15.0156 53.799 15.4494 54.2318 15.9834 54.2318H18.8866V59.0705C18.8866 59.6054 19.3203 60.0382 19.8543 60.0382H45.0153C45.5497 60.0382 45.983 59.6054 45.983 59.0705V53.2641C45.983 52.7287 45.5497 52.2964 45.0153 52.2964H42.1121V48.4254H45.0153C45.5497 48.4254 45.983 47.9926 45.983 47.4577V41.6513C45.983 41.1159 45.5497 40.6836 45.0153 40.6836ZM16.9511 36.8127H40.1767V40.6836H16.9511V36.8127ZM44.0476 58.1027H20.822V54.2318H44.0476V58.1027ZM40.1767 52.2964H16.9511V48.4254H40.1767V52.2964ZM44.0476 46.49H20.822V42.619H44.0476V46.49Z" fill="#1C1C1C"/>
<path d="M30.4985 3.90991C23.5618 3.90991 17.918 9.55375 17.918 16.4904H19.8534C19.8534 10.6212 24.6292 5.84537 30.4985 5.84537V3.90991Z" fill="#1C1C1C"/>
<path d="M30.5 27.1353V29.0707C37.4367 29.0707 43.0805 23.4269 43.0805 16.4902H41.145C41.145 22.3595 36.3692 27.1353 30.5 27.1353Z" fill="#1C1C1C"/>
<path d="M30.4983 0.0388184C21.4268 0.0388184 14.0469 7.41872 14.0469 16.4903C14.0469 25.5618 21.4268 32.9417 30.4983 32.9417C39.5698 32.9417 46.9497 25.5618 46.9497 16.4903C46.9497 7.41872 39.5698 0.0388184 30.4983 0.0388184ZM30.4983 31.0062C22.4942 31.0062 15.9823 24.4944 15.9823 16.4903C15.9823 8.48615 22.4942 1.97428 30.4983 1.97428C38.5024 1.97428 45.0143 8.48615 45.0143 16.4903C45.0143 24.4944 38.5024 31.0062 30.4983 31.0062Z" fill="#1C1C1C"/>
<path d="M49.8545 25.2H50.8222V30.0386H52.7577V24.2322C52.7577 23.7394 52.39 23.333 51.9137 23.2721L54.6931 19.9375L57.4725 23.2711C56.9962 23.333 56.6286 23.7394 56.6286 24.2322V30.0386H58.5641V25.2H59.5318C59.9074 25.2 60.2491 24.9821 60.4088 24.6424C60.5685 24.3026 60.5161 23.901 60.2751 23.6128L55.4364 17.8064C55.0688 17.366 54.3179 17.366 53.9498 17.8064L49.1112 23.6128C48.8702 23.9019 48.8192 24.3036 48.9779 24.6424C49.1376 24.9821 49.4793 25.2 49.8545 25.2Z" fill="#1C1C1C"/>
<path d="M50.8203 31.9741H52.7558V33.9096H50.8203V31.9741Z" fill="#1C1C1C"/>
<path d="M50.8203 35.845H52.7558V37.7805H50.8203V35.845Z" fill="#1C1C1C"/>
<path d="M56.6289 31.9741H58.5644V33.9096H56.6289V31.9741Z" fill="#1C1C1C"/>
<path d="M56.6289 35.845H58.5644V37.7805H56.6289V35.845Z" fill="#1C1C1C"/>
<path d="M55.4364 40.0632C55.0688 39.6228 54.3179 39.6228 53.9498 40.0632L49.1112 45.8696C48.8702 46.1588 48.8192 46.5604 48.9779 46.8992C49.1376 47.2399 49.4793 47.4578 49.8545 47.4578H50.8222V52.2964H52.7577V46.49C52.7577 45.9972 52.39 45.5908 51.9137 45.5299L54.6931 42.1952L57.4725 45.5289C56.9962 45.5908 56.6286 45.9972 56.6286 46.49V52.2964H58.5641V47.4578H59.5318C59.9074 47.4578 60.2491 47.2399 60.4088 46.9002C60.5685 46.5604 60.5161 46.1588 60.2751 45.8705L55.4364 40.0632Z" fill="#1C1C1C"/>
<path d="M50.8203 54.2319H52.7558V56.1674H50.8203V54.2319Z" fill="#1C1C1C"/>
<path d="M50.8203 58.1028H52.7558V60.0382H50.8203V58.1028Z" fill="#1C1C1C"/>
<path d="M56.6289 54.2319H58.5644V56.1674H56.6289V54.2319Z" fill="#1C1C1C"/>
<path d="M56.6289 58.1028H58.5644V60.0382H56.6289V58.1028Z" fill="#1C1C1C"/>
<path d="M7.04969 17.8054C6.68206 17.365 5.93122 17.365 5.56313 17.8054L0.724469 23.6118C0.483481 23.901 0.432448 24.3026 0.591217 24.6414C0.75093 24.9821 1.09257 25.1999 1.46775 25.1999H2.43548V30.0386H4.37094V24.2322C4.37094 23.7394 4.00332 23.333 3.52701 23.272L6.30641 19.9374L9.0858 23.2711C8.60949 23.333 8.24187 23.7394 8.24187 24.2322V30.0386H10.1773V25.1999H11.1451C11.5207 25.1999 11.8624 24.9821 12.0221 24.6423C12.1818 24.3026 12.1293 23.901 11.8883 23.6127L7.04969 17.8054Z" fill="#1C1C1C"/>
<path d="M2.43359 31.9741H4.36908V33.9096H2.43359V31.9741Z" fill="#1C1C1C"/>
<path d="M2.43359 35.845H4.36908V37.7805H2.43359V35.845Z" fill="#1C1C1C"/>
<path d="M8.24219 31.9741H10.1777V33.9096H8.24219V31.9741Z" fill="#1C1C1C"/>
<path d="M8.24219 35.845H10.1777V37.7805H8.24219V35.845Z" fill="#1C1C1C"/>
<path d="M7.04969 40.0632C6.68206 39.6228 5.93122 39.6228 5.56313 40.0632L0.724469 45.8696C0.483481 46.1588 0.432448 46.5604 0.591217 46.8992C0.75093 47.2399 1.09257 47.4578 1.46775 47.4578H2.43548V52.2964H4.37094V46.49C4.37094 45.9972 4.00332 45.5908 3.52701 45.5299L6.30641 42.1952L9.0858 45.5289C8.60949 45.5908 8.24187 45.9972 8.24187 46.49V52.2964H10.1773V47.4578H11.1451C11.5207 47.4578 11.8624 47.2399 12.0221 46.9002C12.1818 46.5604 12.1293 46.1588 11.8883 45.8705L7.04969 40.0632Z" fill="#1C1C1C"/>
<path d="M2.43359 54.2319H4.36908V56.1674H2.43359V54.2319Z" fill="#1C1C1C"/>
<path d="M2.43359 58.1028H4.36908V60.0382H2.43359V58.1028Z" fill="#1C1C1C"/>
<path d="M8.24219 54.2319H10.1777V56.1674H8.24219V54.2319Z" fill="#1C1C1C"/>
<path d="M8.24219 58.1028H10.1777V60.0382H8.24219V58.1028Z" fill="#1C1C1C"/>
</g>
<defs>
<clipPath id="clip0">
<rect width="60" height="60" fill="white" transform="translate(0.5 0.0380859)"/>
</clipPath>
</defs>
</svg>
