<svg width="61" height="61" viewBox="0 0 61 61" fill="none" xmlns="http://www.w3.org/2000/svg">
<path d="M58.625 46.9131H54.875V45.658C55.4356 45.3917 55.9093 44.9719 56.2412 44.4474C56.573 43.9229 56.7495 43.315 56.75 42.6943V35.1943C56.7489 34.4057 56.4642 33.6437 55.9478 33.0475C55.4315 32.4514 54.7179 32.0608 53.9375 31.9471V28.6318C53.9365 27.7619 53.5905 26.9278 52.9754 26.3127C52.3602 25.6976 51.5262 25.3515 50.6562 25.3506H29.0938C28.2238 25.3515 27.3898 25.6976 26.7746 26.3127C26.1595 26.9278 25.8135 27.7619 25.8125 28.6318V31.9471C25.0321 32.0608 24.3185 32.4514 23.8022 33.0475C23.2859 33.6437 23.0011 34.4057 23 35.1943V42.6943C23.0011 43.483 23.2859 44.245 23.8022 44.8412C24.3185 45.4373 25.0321 45.8279 25.8125 45.9416V46.9131H17.375V44.1006C17.375 43.8519 17.2762 43.6135 17.1004 43.4377C16.9246 43.2619 16.6861 43.1631 16.4375 43.1631H12.6875V24.4131H18.3125C18.4409 24.4132 18.5679 24.3869 18.6856 24.3358C18.8034 24.2848 18.9094 24.2101 18.9971 24.1163C19.0848 24.0226 19.1523 23.9118 19.1954 23.7909C19.2385 23.67 19.2563 23.5415 19.2477 23.4135L18.3102 9.35098C18.2944 9.11366 18.189 8.8912 18.0154 8.72866C17.8418 8.56612 17.6128 8.47566 17.375 8.47559H6.125C5.88716 8.47566 5.65824 8.56612 5.4846 8.72866C5.31097 8.8912 5.2056 9.11366 5.18984 9.35098L4.25234 23.4135C4.24372 23.5415 4.26151 23.67 4.30461 23.7909C4.34771 23.9118 4.4152 24.0226 4.50289 24.1163C4.59058 24.2101 4.6966 24.2848 4.81437 24.3358C4.93214 24.3869 5.05914 24.4132 5.1875 24.4131H10.8125V43.1631H7.0625C6.81386 43.1631 6.5754 43.2619 6.39959 43.4377C6.22377 43.6135 6.125 43.8519 6.125 44.1006V46.9131H2.375C2.12636 46.9131 1.8879 47.0119 1.71209 47.1877C1.53627 47.3635 1.4375 47.6019 1.4375 47.8506V50.6631C1.4375 50.9117 1.53627 51.1502 1.71209 51.326C1.8879 51.5018 2.12636 51.6006 2.375 51.6006H58.625C58.8736 51.6006 59.1121 51.5018 59.2879 51.326C59.4637 51.1502 59.5625 50.9117 59.5625 50.6631V47.8506C59.5625 47.6019 59.4637 47.3635 59.2879 47.1877C59.1121 47.0119 58.8736 46.9131 58.625 46.9131ZM27.6875 28.6318C27.6878 28.259 27.8361 27.9015 28.0997 27.6378C28.3634 27.3742 28.7209 27.2259 29.0938 27.2256H50.6562C51.0291 27.2259 51.3866 27.3742 51.6503 27.6378C51.9139 27.9015 52.0622 28.259 52.0625 28.6318V31.9471C51.2821 32.0608 50.5685 32.4514 50.0522 33.0475C49.5358 33.6437 49.2511 34.4057 49.25 35.1943V38.4756H30.5V35.1943C30.4989 34.4057 30.2141 33.6437 29.6978 33.0475C29.1815 32.4514 28.4679 32.0608 27.6875 31.9471V28.6318ZM24.875 42.6943V35.1943C24.8753 34.8215 25.0236 34.464 25.2872 34.2003C25.5509 33.9367 25.9084 33.7884 26.2812 33.7881H27.2188C27.5916 33.7884 27.9491 33.9367 28.2128 34.2003C28.4764 34.464 28.6247 34.8215 28.625 35.1943V39.4131C28.625 39.6617 28.7238 39.9002 28.8996 40.076C29.0754 40.2518 29.3139 40.3506 29.5625 40.3506H50.1875C50.4361 40.3506 50.6746 40.2518 50.8504 40.076C51.0262 39.9002 51.125 39.6617 51.125 39.4131V35.1943C51.1253 34.8215 51.2736 34.464 51.5372 34.2003C51.8009 33.9367 52.1584 33.7884 52.5312 33.7881H53.4688C53.8416 33.7884 54.1991 33.9367 54.4628 34.2003C54.7264 34.464 54.8747 34.8215 54.875 35.1943V42.6943C54.8747 43.0672 54.7264 43.4247 54.4628 43.6884C54.1991 43.952 53.8416 44.1003 53.4688 44.1006H26.2812C25.9084 44.1003 25.5509 43.952 25.2872 43.6884C25.0236 43.4247 24.8753 43.0672 24.875 42.6943ZM53 45.9756V46.9131H51.125V45.9756H53ZM49.25 45.9756V46.9131H31.4375V45.9756H49.25ZM29.5625 45.9756V46.9131H27.6875V45.9756H29.5625ZM6.18945 22.5381L7.00156 10.3506H16.4984L17.3105 22.5381H6.18945ZM8 45.0381H15.5V46.9131H8V45.0381ZM57.6875 49.7256H3.3125V48.7881H57.6875V49.7256Z" fill="#1C1C1C"/>
<path d="M31.4375 22.5381H48.3125C48.5611 22.5381 48.7996 22.4393 48.9754 22.2635C49.1512 22.0877 49.25 21.8492 49.25 21.6006V9.41309C49.25 9.16445 49.1512 8.92599 48.9754 8.75017C48.7996 8.57436 48.5611 8.47559 48.3125 8.47559H31.4375C31.1889 8.47559 30.9504 8.57436 30.7746 8.75017C30.5988 8.92599 30.5 9.16445 30.5 9.41309V21.6006C30.5 21.8492 30.5988 22.0877 30.7746 22.2635C30.9504 22.4393 31.1889 22.5381 31.4375 22.5381ZM32.375 10.3506H47.375V20.6631H32.375V10.3506Z" fill="#1C1C1C"/>
<path d="M45.5 11.2881H34.25C34.0014 11.2881 33.7629 11.3869 33.5871 11.5627C33.4113 11.7385 33.3125 11.9769 33.3125 12.2256V18.7881C33.3125 19.0367 33.4113 19.2752 33.5871 19.451C33.7629 19.6268 34.0014 19.7256 34.25 19.7256H45.5C45.7486 19.7256 45.9871 19.6268 46.1629 19.451C46.3387 19.2752 46.4375 19.0367 46.4375 18.7881V12.2256C46.4375 11.9769 46.3387 11.7385 46.1629 11.5627C45.9871 11.3869 45.7486 11.2881 45.5 11.2881ZM44.5625 17.8506H35.1875V13.1631H44.5625V17.8506Z" fill="#1C1C1C"/>
</svg>
