<svg width="271" height="48" viewBox="0 0 271 48" fill="none" xmlns="http://www.w3.org/2000/svg">
<path d="M11.859 2.1103C18.3348 2.2636 22.9423 0.799316 22.9423 9.22556C22.9423 15.1937 20.4881 17.0228 16.5193 17.0228H11.859V2.1103ZM12.0649 35.7571C15.7223 35.7571 20.5831 36.1748 24.3936 34.9166C28.0511 33.7167 31.2547 31.2533 31.2547 26.649C31.2547 20.6861 25.1958 18.0166 20.0765 17.6624V17.5567C24.5678 16.8747 30.0566 14.5752 30.0566 9.23614C30.0408 1.69269 21.8128 0.799316 16.039 0.799316H0V2.1103H5.17217V34.4462H0V35.7571H12.0649ZM11.859 18.3126H16.8201C22.1506 18.3602 23.7656 21.4473 23.7656 26.3688C23.7656 30.0322 22.9845 34.425 18.4404 34.425H11.859V18.3126Z" fill="white"/>
<path d="M45.8744 28.1661C45.9212 29.0882 45.7977 30.0112 45.5102 30.8885C44.8822 32.5642 43.5258 33.9756 41.6944 33.9756C39.2403 33.9756 38.3008 32.2523 38.3008 29.9475C38.3008 25.7185 42.6339 25.2903 45.8744 25.2903V28.1661ZM45.8744 24.1908C41.1719 23.9318 32.812 25.2481 32.812 31.4647C32.812 34.8161 35.1131 36.5394 38.2481 36.5394C39.7126 36.522 41.1554 36.1813 42.4735 35.5417C43.7917 34.9022 44.9528 33.9794 45.8744 32.8391C46.191 35.1439 47.6477 36.5394 49.9488 36.5394C52.1443 36.5394 53.5535 35.4399 54.9151 33.7695L54.2871 33.0347C53.8701 33.4523 53.0837 34.2399 52.4557 34.2399C51.8276 34.2399 51.2049 33.9228 51.2049 33.2461V19.3222C51.2049 17.7046 50.7352 16.8641 49.2732 16.1505C47.1845 15.1644 44.8947 14.6811 42.5864 14.739C39.4197 14.739 34.2792 16.1505 34.2792 20.1257C34.2792 21.8014 35.53 22.5838 36.992 22.5838C38.1953 22.5838 39.4989 21.6428 39.4989 20.2843C39.485 19.3971 39.2335 18.5299 38.7706 17.7733C37.9842 16.7795 40.4436 15.7804 42.428 15.7804C43.3147 15.7804 45.8744 16.309 45.8744 17.6676V24.1908Z" fill="white"/>
<path d="M64.9002 20.6488C66.5733 17.7731 68.3994 14.7388 72.2151 14.7388C74.2523 14.7388 76.3951 15.796 76.3951 18.1378C76.3951 20.1783 74.9859 21.0664 73.1018 21.0664C72.4586 21.0543 71.8436 20.8002 71.3791 20.3545C70.9145 19.9088 70.6346 19.3042 70.5949 18.6612C70.6072 18.3978 70.6425 18.136 70.7004 17.8788C70.8588 17.0383 70.9115 16.7264 70.3363 16.7264C69.3441 16.7264 68.8216 17.255 68.1407 17.9264C66.1563 19.914 64.9002 22.7421 64.9002 29.5984V34.4617H69.6027V35.7727H56.1762V34.4458H59.2847V16.3405H55.8384V15.0348C58.5564 15.1405 61.7441 14.9291 64.9266 14.8233L64.9002 20.6488Z" fill="white"/>
<path d="M74.8804 35.7568V34.4458H78.8123V2.10996H75.0545V0.798974C78.201 0.885824 81.3475 0.628805 84.4383 0.0324707V34.4458H88.2541V35.7568H74.8804Z" fill="white"/>
<path d="M93.5898 22.8848C93.5898 19.5862 93.1201 15.7643 97.4584 15.7643C102.108 15.7643 101.221 19.3801 101.221 22.8848H93.5898ZM105.818 24.1905C106.652 24.1905 107.122 24.3491 107.122 23.2496C107.122 18.0691 102.631 14.7229 97.7698 14.7229C92.0751 14.7229 87.3779 19.951 87.3779 25.7077C87.3779 31.0468 91.4998 36.5392 97.1945 36.5392C102.266 36.5392 105.871 34.2925 107.222 29.2125H105.913C104.858 32.7701 101.997 35.4925 98.2342 35.4925C93.7956 35.4925 93.5845 32.0406 93.5845 28.3772V24.1905H105.818Z" fill="white"/>
<path d="M108.262 16.3409H105.729V15.0352H117.693V16.3409H114.347L120.153 29.0595L125.114 16.3409H121.356V15.0352H129.557V16.3409H126.681L117.456 39.9439C116.358 42.7138 114.289 48.0001 110.769 48.0001C109.307 48.0001 107.892 46.7948 107.892 45.357C107.877 45.0164 107.93 44.6761 108.049 44.3567C108.168 44.0373 108.351 43.7453 108.585 43.4984C108.82 43.2514 109.102 43.0546 109.415 42.9198C109.728 42.785 110.064 42.7149 110.405 42.7138C111.708 42.7138 112.178 43.031 112.964 43.972C113.328 44.4424 113.492 45.4362 115.16 41.6672C116.059 39.7702 116.826 37.8131 117.456 35.81L108.262 16.3409Z" fill="white"/>
<path d="M138.646 36.0686H137.754V25.6548H139.269C140.367 30.6291 143.349 35.2334 148.885 35.2334C153.012 35.2334 156.67 32.1991 156.67 27.9067C156.67 23.0381 152.331 22.0918 148.415 20.7386C147.36 20.3685 146.304 20.0038 145.28 19.6813C140.42 18.217 138.018 14.5537 138.018 9.57934C138.018 4.08694 142.093 0.00597261 147.518 0.00597261C150.3 -0.0845532 153.018 0.856632 155.15 2.64909L157.134 0.534596H158.074V10.4304H156.395C155.82 5.45608 152.585 1.32224 147.36 1.32224C144.014 1.32224 140.879 3.78563 140.879 7.2904C140.879 11.3185 143.65 11.7361 146.89 12.6295C148.194 12.9942 149.239 13.359 150.125 13.6233C151.308 13.9394 152.465 14.3441 153.588 14.8339C157.979 16.9166 159.562 20.3685 159.562 25.0786C159.562 31.6705 155.282 36.5391 148.542 36.5391C146.083 36.5391 142.948 35.5453 141.122 33.896L138.646 36.0686Z" fill="white"/>
<path d="M168.771 19.7448H168.877C170.55 16.4991 172.899 14.7229 176.662 14.7229C183.612 14.7229 183.037 19.5862 183.037 24.7667V34.4458H186.325V35.7568H174.186V34.4458H177.506V25.0258C177.506 20.1624 178.034 16.6048 174.524 16.6048C172.276 16.6048 170.244 19.01 169.457 20.9448C168.777 22.6734 168.777 25.0786 168.777 27.542V34.4458H172.07V35.7568H159.683V34.4458H163.256V16.3405H159.704V15.0348C162.343 15.1405 165.557 14.9291 168.792 14.8233L168.771 19.7448Z" fill="white"/>
<path d="M185.992 16.3409H183.433V15.0352H195.392V16.3409H192.051L197.857 29.0595L202.839 16.3409H199.076V15.0352H207.277V16.3409H204.406L195.186 39.9439C194.088 42.7138 192.019 48.0001 188.499 48.0001C187.037 48.0001 185.623 46.7948 185.623 45.357C185.606 45.0166 185.659 44.6765 185.778 44.3571C185.896 44.0377 186.078 43.7457 186.312 43.4987C186.547 43.2516 186.828 43.0547 187.141 42.9198C187.453 42.7849 187.79 42.7149 188.13 42.7138C189.439 42.7138 189.908 43.031 190.689 43.972C191.059 44.4424 191.217 45.4362 192.885 41.6672C193.788 39.7713 194.557 37.814 195.186 35.81L185.992 16.3409Z" fill="white"/>
<path d="M211.499 21.4681C211.499 18.4867 211.916 15.7643 215.363 15.7643C219.39 15.7643 221.532 20.1096 221.532 23.4082V28.9534C221.532 32.0934 218.445 35.4925 215.262 35.4925C212.386 35.4925 211.499 33.2934 211.499 30.7825V21.4681ZM221.527 36.1744C224.868 35.5982 227.897 35.7568 230.932 35.7568V34.4458H227.169V0.0324707C224.072 0.635489 220.918 0.897832 217.764 0.814832V2.12582H221.527V19.1686H221.421C220.793 16.7105 218.498 14.7229 215.088 14.7229C209.657 14.7229 205.113 20.58 205.113 25.7605C205.113 28.4829 206.169 31.9877 208.243 33.822C210.227 35.5453 211.642 36.5392 214.407 36.5392C217.701 36.5392 220.155 34.9533 221.411 32.1992H221.516L221.527 36.1744Z" fill="white"/>
<path d="M236.437 22.8848C236.437 19.5862 235.962 15.7643 240.3 15.7643C244.95 15.7643 244.063 19.3801 244.063 22.8848H236.437ZM248.66 24.1905C249.494 24.1905 249.964 24.3491 249.964 23.2496C249.964 18.0691 245.472 14.7229 240.612 14.7229C234.922 14.7229 230.22 19.951 230.22 25.7077C230.22 31.0468 234.342 36.5392 240.042 36.5392C245.108 36.5392 248.713 34.2925 250.069 29.2125H248.755C247.7 32.7701 244.834 35.4925 241.071 35.4925C236.632 35.4925 236.426 32.0406 236.426 28.3772V24.1905H248.66Z" fill="white"/>
<path d="M259.263 20.6488C260.936 17.7731 262.762 14.7388 266.577 14.7388C268.615 14.7388 270.757 15.796 270.757 18.1378C270.757 20.1783 269.348 21.0664 267.464 21.0664C266.821 21.0543 266.206 20.8002 265.741 20.3545C265.277 19.9088 264.997 19.3042 264.957 18.6612C264.97 18.3978 265.005 18.136 265.063 17.8788C265.221 17.0383 265.269 16.7264 264.699 16.7264C263.706 16.7264 263.184 17.255 262.503 17.9264C260.519 19.914 259.263 22.7421 259.263 29.5984V34.4617H263.965V35.7727H250.538V34.4458H253.621V16.3405H250.174V15.0348C252.892 15.1405 256.075 14.9291 259.263 14.8233V20.6488Z" fill="white"/>
</svg>
