<svg width="271" height="49" viewBox="0 0 271 49" fill="none" xmlns="http://www.w3.org/2000/svg">
<path d="M11.859 2.6103C18.3348 2.7636 22.9423 1.29932 22.9423 9.72556C22.9423 15.6937 20.4881 17.5228 16.5193 17.5228H11.859V2.6103ZM12.0649 36.2571C15.7223 36.2571 20.5831 36.6748 24.3936 35.4166C28.0511 34.2167 31.2547 31.7533 31.2547 27.149C31.2547 21.1861 25.1958 18.5166 20.0765 18.1624V18.0567C24.5678 17.3747 30.0566 15.0752 30.0566 9.73614C30.0408 2.19269 21.8128 1.29932 16.039 1.29932H0V2.6103H5.17217V34.9462H0V36.2571H12.0649ZM11.859 18.8126H16.8201C22.1506 18.8602 23.7656 21.9473 23.7656 26.8688C23.7656 30.5322 22.9845 34.925 18.4404 34.925H11.859V18.8126Z" fill="#79011A"/>
<path d="M45.8749 28.6661C45.9217 29.5882 45.7982 30.5112 45.5107 31.3885C44.8827 33.0642 43.5263 34.4756 41.6949 34.4756C39.2408 34.4756 38.3013 32.7523 38.3013 30.4475C38.3013 26.2185 42.6343 25.7903 45.8749 25.7903V28.6661ZM45.8749 24.6908C41.1724 24.4318 32.8125 25.7481 32.8125 31.9647C32.8125 35.3161 35.1136 37.0394 38.2486 37.0394C39.7131 37.022 41.1559 36.6813 42.474 36.0417C43.7922 35.4022 44.9533 34.4794 45.8749 33.3391C46.1915 35.6439 47.6482 37.0394 49.9493 37.0394C52.1448 37.0394 53.554 35.9399 54.9156 34.2695L54.2876 33.5347C53.8706 33.9523 53.0842 34.7399 52.4562 34.7399C51.8281 34.7399 51.2054 34.4228 51.2054 33.7461V19.8222C51.2054 18.2046 50.7356 17.3641 49.2737 16.6505C47.185 15.6644 44.8952 15.1811 42.5868 15.239C39.4202 15.239 34.2797 16.6505 34.2797 20.6257C34.2797 22.3014 35.5305 23.0838 36.9925 23.0838C38.1958 23.0838 39.4994 22.1428 39.4994 20.7843C39.4855 19.8971 39.234 19.0299 38.771 18.2733C37.9847 17.2795 40.4441 16.2804 42.4285 16.2804C43.3152 16.2804 45.8749 16.809 45.8749 18.1676V24.6908Z" fill="#79011A"/>
<path d="M64.9017 21.1488C66.5747 18.2731 68.4008 15.2388 72.2166 15.2388C74.2538 15.2388 76.3966 16.296 76.3966 18.6378C76.3966 20.6783 74.9874 21.5664 73.1033 21.5664C72.4601 21.5543 71.8451 21.3002 71.3805 20.8545C70.916 20.4088 70.636 19.8042 70.5963 19.1612C70.6086 18.8978 70.644 18.636 70.7019 18.3788C70.8602 17.5383 70.913 17.2264 70.3377 17.2264C69.3455 17.2264 68.823 17.755 68.1422 18.4264C66.1578 20.414 64.9017 23.2421 64.9017 30.0984V34.9617H69.6041V36.2727H56.1776V34.9458H59.2862V16.8405H55.8398V15.5348C58.5579 15.6405 61.7456 15.4291 64.9281 15.3233L64.9017 21.1488Z" fill="#79011A"/>
<path d="M74.8789 36.257V34.9461H78.8108V2.6102H75.0531V1.29922C78.1995 1.38607 81.346 1.12905 84.4369 0.532715V34.9461H88.2527V36.257H74.8789Z" fill="#79011A"/>
<path d="M93.5908 23.3846C93.5908 20.086 93.1211 16.264 97.4594 16.264C102.109 16.264 101.222 19.8798 101.222 23.3846H93.5908ZM105.819 24.6903C106.653 24.6903 107.123 24.8489 107.123 23.7493C107.123 18.5688 102.632 15.2227 97.7707 15.2227C92.0761 15.2227 87.3789 20.4507 87.3789 26.2074C87.3789 31.5465 91.5008 37.0389 97.1955 37.0389C102.267 37.0389 105.872 34.7923 107.223 29.7122H105.914C104.859 33.2698 101.998 35.9923 98.2352 35.9923C93.7966 35.9923 93.5855 32.5403 93.5855 28.877V24.6903H105.819Z" fill="#79011A"/>
<path d="M108.26 16.8409H105.727V15.5352H117.691V16.8409H114.345L120.151 29.5595L125.112 16.8409H121.354V15.5352H129.555V16.8409H126.679L117.454 40.4439C116.356 43.2138 114.287 48.5001 110.767 48.5001C109.305 48.5001 107.89 47.2948 107.89 45.857C107.875 45.5164 107.928 45.1761 108.047 44.8567C108.166 44.5373 108.349 44.2453 108.583 43.9984C108.818 43.7514 109.1 43.5546 109.413 43.4198C109.726 43.285 110.062 43.2149 110.403 43.2138C111.706 43.2138 112.176 43.531 112.962 44.472C113.326 44.9424 113.49 45.9362 115.158 42.1672C116.057 40.2702 116.824 38.3131 117.454 36.31L108.26 16.8409Z" fill="#79011A"/>
<path d="M138.646 36.5686H137.754V26.1548H139.269C140.366 31.1291 143.348 35.7334 148.885 35.7334C153.012 35.7334 156.669 32.6991 156.669 28.4067C156.669 23.5381 152.331 22.5918 148.415 21.2386C147.359 20.8685 146.304 20.5038 145.28 20.1813C140.419 18.717 138.018 15.0537 138.018 10.0793C138.018 4.58694 142.092 0.505973 147.518 0.505973C150.3 0.415447 153.017 1.35663 155.149 3.14909L157.134 1.0346H158.073V10.9304H156.395C155.82 5.95608 152.584 1.82224 147.359 1.82224C144.013 1.82224 140.878 4.28563 140.878 7.7904C140.878 11.8185 143.649 12.2361 146.89 13.1295C148.193 13.4942 149.238 13.859 150.125 14.1233C151.308 14.4394 152.465 14.8441 153.587 15.3339C157.978 17.4166 159.561 20.8685 159.561 25.5786C159.561 32.1705 155.281 37.0391 148.542 37.0391C146.082 37.0391 142.947 36.0453 141.121 34.396L138.646 36.5686Z" fill="#79011A"/>
<path d="M168.772 20.2446H168.877C170.55 16.9988 172.899 15.2227 176.662 15.2227C183.613 15.2227 183.038 20.086 183.038 25.2665V34.9456H186.326V36.2566H174.187V34.9456H177.506V25.5255C177.506 20.6622 178.034 17.1046 174.525 17.1046C172.276 17.1046 170.244 19.5098 169.458 21.4445C168.777 23.1731 168.777 25.5784 168.777 28.0418V34.9456H172.07V36.2566H159.684V34.9456H163.257V16.8402H159.705V15.5345C162.344 15.6403 165.558 15.4288 168.793 15.3231L168.772 20.2446Z" fill="#79011A"/>
<path d="M185.993 16.8409H183.434V15.5352H195.393V16.8409H192.052L197.858 29.5595L202.84 16.8409H199.077V15.5352H207.278V16.8409H204.407L195.187 40.4439C194.089 43.2138 192.02 48.5001 188.5 48.5001C187.038 48.5001 185.624 47.2948 185.624 45.857C185.607 45.5166 185.66 45.1765 185.779 44.8571C185.897 44.5377 186.079 44.2457 186.313 43.9987C186.548 43.7516 186.829 43.5547 187.142 43.4198C187.454 43.2849 187.791 43.2149 188.131 43.2138C189.44 43.2138 189.909 43.531 190.69 44.472C191.06 44.9424 191.218 45.9362 192.886 42.1672C193.789 40.2713 194.558 38.314 195.187 36.31L185.993 16.8409Z" fill="#79011A"/>
<path d="M211.499 21.9684C211.499 18.9869 211.916 16.2645 215.363 16.2645C219.39 16.2645 221.532 20.6098 221.532 23.9084V29.4537C221.532 32.5937 218.445 35.9927 215.262 35.9927C212.386 35.9927 211.499 33.7937 211.499 31.2827V21.9684ZM221.527 36.6747C224.868 36.0985 227.897 36.257 230.932 36.257V34.9461H227.169V0.532715C224.072 1.13573 220.918 1.39808 217.764 1.31508V2.62606H221.527V19.6689H221.421C220.793 17.2108 218.498 15.2231 215.088 15.2231C209.657 15.2231 205.113 21.0803 205.113 26.2608C205.113 28.9832 206.169 32.488 208.243 34.3223C210.227 36.0456 211.642 37.0394 214.407 37.0394C217.701 37.0394 220.155 35.4535 221.411 32.6994H221.516L221.527 36.6747Z" fill="#79011A"/>
<path d="M236.436 23.3846C236.436 20.086 235.961 16.264 240.299 16.264C244.949 16.264 244.062 19.8798 244.062 23.3846H236.436ZM248.659 24.6903C249.493 24.6903 249.963 24.8489 249.963 23.7493C249.963 18.5688 245.471 15.2227 240.611 15.2227C234.921 15.2227 230.219 20.4507 230.219 26.2074C230.219 31.5465 234.341 37.0389 240.041 37.0389C245.107 37.0389 248.712 34.7923 250.068 29.7122H248.754C247.699 33.2698 244.833 35.9923 241.07 35.9923C236.631 35.9923 236.425 32.5403 236.425 28.877V24.6903H248.659Z" fill="#79011A"/>
<path d="M259.264 21.1488C260.937 18.2731 262.763 15.2388 266.579 15.2388C268.616 15.2388 270.759 16.296 270.759 18.6378C270.759 20.6783 269.35 21.5664 267.466 21.5664C266.822 21.5543 266.207 21.3002 265.743 20.8545C265.278 20.4088 264.998 19.8042 264.959 19.1612C264.971 18.8978 265.006 18.636 265.064 18.3788C265.223 17.5383 265.27 17.2264 264.7 17.2264C263.708 17.2264 263.185 17.755 262.505 18.4264C260.52 20.414 259.264 23.2421 259.264 30.0984V34.9617H263.966V36.2727H250.54V34.9458H253.622V16.8405H250.176V15.5348C252.894 15.6405 256.076 15.4291 259.264 15.3233V21.1488Z" fill="#79011A"/>
</svg>
