<svg width="212" height="51" viewBox="0 0 212 51" fill="none" xmlns="http://www.w3.org/2000/svg">
<path d="M6.77795 38.3465C5.3496 38.3465 4.27159 37.7063 3.73109 37.7063C3.28791 37.7063 3.09327 38.0995 3.14418 38.5423L1.078 38.7456L0 31.1842L2.162 30.8829C2.40754 33.1604 3.33882 35.825 5.79428 35.825C8.49528 35.825 9.33372 33.6996 9.33372 31.38C9.33372 29.5499 8.54618 27.0796 7.56101 25.1019C5.89309 21.8935 3.243 16.6547 2.06168 14.3351C1.17383 12.5532 0.392274 10.1371 0.392274 7.90933C0.392274 3.01848 2.84623 0.5 7.56101 0.5C9.62419 0.5 10.6049 1.14167 10.9567 1.14167C11.5436 1.14167 11.6904 0.991043 11.8341 0.551213L13.8524 0.843429L12.963 8.25878L10.7576 7.96054C10.8534 7.31887 10.9043 6.12892 10.8025 5.68307C10.4611 4.25814 10.0689 3.01848 8.24973 3.01848C6.53091 3.01848 5.50082 4.30634 5.50082 6.47988C5.50082 8.30397 6.43209 10.0874 7.17322 11.6675C9.33372 16.0161 11.346 20.0167 12.6216 22.6828C13.9467 25.3037 14.4423 28.2183 14.4423 29.7517C14.4423 34.8384 12.4225 38.3465 6.77795 38.3465Z" fill="black"/>
<path d="M27.013 38.2982V35.09C25.3391 37.6054 23.9167 38.3464 21.5122 38.3464C19.1091 38.3464 16.989 36.4185 16.989 32.2176V19.5699C16.989 18.2866 17.0954 17.4446 16.3542 17.4446C15.9619 17.4446 15.5218 17.7428 15.2717 17.8934L14.5381 16.3119L21.8041 13.0991V31.576C21.8041 34.2947 22.1979 35.2361 23.4795 35.2361C25.3915 35.2361 26.5219 32.8683 26.5219 29.7519V19.963C26.5219 18.9764 26.6686 17.4988 25.8332 17.4988C25.5382 17.4988 24.9992 17.6991 24.7522 17.8934L24.0125 16.3119L31.3355 13.0991V33.8971C31.3355 35.5765 31.4822 35.9726 32.0721 35.9726C32.3641 35.9726 32.9091 35.7753 32.9091 35.7753L33.0034 37.4081C30.5944 37.753 27.013 38.2982 27.013 38.2982Z" fill="black"/>
<path d="M43.2937 16.4113C41.5255 16.4113 40.446 19.9178 40.446 22.5823V32.1212C40.446 34.6893 41.5749 35.9274 43.147 35.9274C44.9137 35.9274 45.8465 32.3697 45.8465 26.1415C45.8465 17.8934 44.7685 16.4113 43.2937 16.4113ZM43.9315 38.3464C42.4583 38.3464 41.2785 37.9473 40.446 37.3614V47.0885C40.446 48.5722 40.6406 48.8252 41.5749 48.8252H41.9193V50.5001H34.0603V48.8252H34.4541C35.4812 48.8252 35.6294 48.6249 35.6294 47.0419V19.7702C35.6294 18.877 35.6294 17.4446 35.0904 17.4446C34.746 17.4446 34.207 17.6991 33.8627 17.8467L33.123 16.3601L39.9025 13.0991V16.8029C41.3264 14.1851 42.8535 13.0991 45.011 13.0991C47.8588 13.0991 51.0015 15.1747 51.0524 25.8418C51.0524 35.0358 47.3198 38.3464 43.9315 38.3464Z" fill="black"/>
<path d="M60.7226 15.027C59.1491 15.027 58.4154 17.8934 58.4154 24.9635C60.3274 23.9694 61.2646 23.4724 62.2438 22.8819C62.4924 22.7343 62.5942 22.4346 62.5942 21.2989C62.5942 17.3993 62.0477 15.027 60.7226 15.027ZM58.4633 27.5768C58.4633 35.1335 60.0369 36.0704 61.9998 36.0704C63.9147 36.0704 65.3401 34.2945 65.927 32.4148L67.6473 33.2507C66.6157 35.9725 64.8475 38.2981 61.0176 38.2981C56.746 38.2981 53.1602 34.3879 53.1602 26.1926C53.1602 16.6553 57.2371 13.1006 60.8679 13.1006C64.7487 13.1006 67.6952 16.6086 67.8929 22.6816" fill="black"/>
<path d="M82.3294 19.8215L80.5102 19.6227C80.612 19.0744 80.7543 18.5367 80.5596 17.9432C80.3111 17.2006 79.9727 17.0967 79.1807 17.0967C77.7134 17.0967 76.288 19.8727 76.288 22.5839V34.8884C76.288 36.0723 76.4842 36.2696 77.3166 36.2696H77.8571V37.9476H69.9548V36.2696H70.3441C71.2768 36.2696 71.476 36.0723 71.476 34.789V19.0247C71.476 18.1857 71.4206 17.4446 70.7857 17.4446C70.5432 17.4446 70.0012 17.6992 69.7062 17.8935L69.0205 16.3104L75.746 13.0991V17.5516C77.2657 14.4849 78.8872 13.0991 81.148 13.0991C81.8368 13.0991 82.9133 13.3989 82.9133 13.3989" fill="black"/>
<path d="M105.181 38.6876L103.173 38.4932C103.121 38.1483 103.173 37.9465 102.134 37.9465H90.252V36.1224H90.8389C91.8749 36.1224 92.0711 35.7729 92.0711 34.4459V4.50406C92.0711 2.96465 91.8749 2.72214 90.8389 2.72214H90.252V0.89502H99.4854V2.72214H98.8475C97.6707 2.72214 97.4746 2.96465 97.4746 4.44833V35.7729H99.7339C102.824 35.7729 103.609 34.7878 104.152 31.3309L106.064 31.5749" fill="black"/>
<path d="M116.281 24.1154C113.97 24.6606 112.157 27.6218 112.157 30.6372C112.157 34.1512 112.648 35.43 114.021 35.4842C115.302 35.4842 116.281 34.0985 116.281 31.8678V24.1154ZM116.972 38.346V35.68C116.38 36.6183 115.102 38.346 112.597 38.346C109.749 38.346 107.446 36.7163 107.446 31.6298C107.446 26.3431 111.916 23.0294 116.234 22.195V20.0155C116.234 16.9534 115.596 15.7169 113.533 15.7169C111.96 15.7169 109.852 17.6478 109.852 17.6478L108.671 16.116C110.337 14.7755 112.452 13.1006 115.498 13.1006C118.933 13.1006 121.092 15.2258 121.092 19.8724V33.7536C121.092 35.9255 121.39 36.0234 122.08 35.8758C122.372 35.8231 122.667 35.7252 122.667 35.7252L122.766 37.4573C120.601 37.8007 119.128 38.0507 116.972 38.346Z" fill="black"/>
<path d="M148.603 15.2708C147.712 15.2708 147.463 15.6684 147.127 17.3539C145.848 23.6245 144.721 29.1058 143.15 36.9143C143.053 37.3134 143.098 37.7051 143.199 37.9476H138.188C137.445 34.1533 136.562 29.6511 135.679 25.4064C134.996 28.8618 134.214 32.5115 133.279 36.9143C133.228 37.2065 133.228 37.6554 133.376 37.9476H128.368C127.083 31.4782 125.366 22.9783 124.238 17.2003C123.897 15.5238 123.503 15.2708 122.668 15.2708H122.177V13.5928H130.819V15.2708H130.675C129.301 15.2708 129.353 15.816 129.353 16.3583C129.353 16.5586 129.446 17.3539 129.498 17.6476C130.331 22.4346 130.675 24.215 131.509 28.9597C131.75 30.3394 131.994 31.7237 132.244 33.5568C132.443 31.7794 132.684 30.5398 132.927 29.0621C133.476 26.2921 134.602 20.017 134.602 20.017L134.063 17.2003C133.719 15.5238 133.425 15.2708 132.588 15.2708H132.244V13.5928H140.889V15.2708H140.593C139.217 15.2708 139.169 15.816 139.169 16.3583C139.169 16.5586 139.266 17.3539 139.314 17.6476C140.099 22.2387 140.494 24.3144 141.329 28.9597C141.576 30.3394 141.825 31.7237 142.064 33.5568C142.262 31.7794 142.511 30.5398 142.804 29.0621C143.244 26.7801 143.981 22.2387 144.677 18.5363C144.677 18.5363 145.065 16.4592 145.065 16.1158C145.065 15.6684 144.818 15.2708 144.077 15.2708H143.738V13.5928H148.796V15.2708" fill="black"/>
<path d="M164.48 15.2708C163.508 15.2708 163.357 15.6172 162.969 17.0979C161.49 23.373 157.904 38.1013 155.154 49.5113H150.542C150.881 48.9208 151.324 47.9809 151.665 47.1947C153.046 43.9758 153.875 41.7073 154.814 39.1391L149.752 17.6989C149.407 16.1158 149.163 15.2708 148.18 15.2708H147.641V13.5928H156.675V15.2708H156.38C155.254 15.2708 154.961 15.6172 154.961 16.3583C154.961 16.7032 155.059 17.2967 155.35 18.7849C156.04 22.1424 156.675 25.8433 156.97 27.4294C157.317 29.1059 157.413 29.6511 157.611 30.9842C157.81 29.752 158.1 28.5636 158.395 27.3751C158.735 25.9457 159.578 22.043 160.355 18.5364C160.559 17.6477 160.702 16.9066 160.702 16.3583C160.702 15.572 160.559 15.2708 159.578 15.2708H159.379V13.5928H164.687V15.2708" fill="black"/>
<path d="M171.713 15.027C170.144 15.027 169.409 17.8934 169.409 24.9635C171.322 23.9694 172.253 23.4724 173.233 22.8819C173.481 22.7343 173.581 22.4346 173.581 21.2989C173.581 17.3993 173.044 15.027 171.713 15.027ZM169.455 27.5768C169.455 35.1335 171.023 36.0704 172.993 36.0704C174.905 36.0704 176.336 34.2945 176.923 32.4148L178.637 33.2507C177.61 35.9725 175.836 38.2981 172.008 38.2981C167.736 38.2981 164.153 34.3879 164.153 26.1926C164.153 16.6553 168.227 13.1006 171.863 13.1006C175.743 13.1006 178.685 16.6086 178.886 22.6816" fill="black"/>
<path d="M193.211 19.8215L191.397 19.6227C191.494 19.0744 191.641 18.5367 191.442 17.9432C191.197 17.2006 190.853 17.0967 190.064 17.0967C188.595 17.0967 187.17 19.8727 187.17 22.5839V34.8884C187.17 36.0723 187.366 36.2696 188.202 36.2696H188.742V37.9476H180.835V36.2696H181.229C182.159 36.2696 182.353 36.0723 182.353 34.789V19.0247C182.353 18.1857 182.305 17.4446 181.668 17.4446C181.427 17.4446 180.882 17.6992 180.594 17.8935L179.899 16.3104L186.628 13.0991V17.5516C188.146 14.4849 189.775 13.0991 192.03 13.0991C192.716 13.0991 193.797 13.3989 193.797 13.3989" fill="black"/>
<path d="M201.651 38.149C200.322 38.149 199.392 37.6549 198.85 37.6549C198.459 37.6549 198.265 37.9471 198.312 38.2981L196.492 38.6475L195.063 32.4675L196.986 32.0202C197.429 34.2946 198.709 35.8249 200.819 35.8249C202.934 35.8249 203.668 34.388 203.668 32.9571C203.668 31.3318 202.635 29.6509 201.359 28.2185C199.832 26.4909 198.312 24.6608 197.032 23.126C196.05 21.9948 195.361 20.3606 195.361 18.6811C195.361 15.1746 198.265 13.1006 201.651 13.1006C203.223 13.1006 204.062 13.6925 204.749 13.6925C205.291 13.6925 205.385 13.4952 205.483 13.1006L207.208 13.3461L206.613 19.5216L204.647 19.3755C204.843 18.3859 204.749 17.3541 204.498 16.6553C204.258 15.8178 203.521 15.1746 202.289 15.1746C200.819 15.1746 199.735 15.9639 199.735 17.3993C199.735 18.8287 200.771 20.0171 201.603 21.0519C203.325 23.0823 204.009 23.8188 204.942 24.8581C206.073 26.1414 208.137 28.5634 208.137 31.7792C208.137 35.8761 204.942 38.149 201.651 38.149Z" fill="black"/>
<path d="M210.095 14.5923H209.844V15.1061H210.095C210.268 15.1061 210.383 15.0096 210.383 14.8454C210.383 14.6782 210.268 14.5923 210.095 14.5923ZM210.461 15.3863L211.001 16.1185H210.467L209.983 15.4375H209.844V16.1185H209.398V14.2548H210.136C210.564 14.2548 210.83 14.4612 210.83 14.8198C210.83 15.0804 210.693 15.2914 210.461 15.3863ZM210.053 16.8763C211.03 16.8763 211.672 16.1531 211.672 15.2401C211.672 14.3241 211.03 13.5995 210.053 13.5995C209.065 13.5995 208.424 14.3241 208.424 15.2401C208.424 16.1531 209.065 16.8763 210.053 16.8763ZM210.053 13.3223C211.241 13.3223 212 14.2021 212 15.2401C212 16.2676 211.241 17.1671 210.053 17.1671C208.868 17.1671 208.103 16.2676 208.103 15.2401C208.103 14.2021 208.868 13.3223 210.053 13.3223Z" fill="black"/>
</svg>
